<svg width="1261" height="372" viewBox="0 0 1261 372" fill="none" xmlns="http://www.w3.org/2000/svg">
<path d="M1261 630.5C1261 978.716 978.716 1261 630.5 1261C282.284 1261 0 978.716 0 630.5C0 282.284 282.284 0 630.5 0C978.716 0 1261 282.284 1261 630.5Z" fill="url(#paint0_linear_56:16)"/>
<g filter="url(#filter0_d_56:16)">
<path fill-rule="evenodd" clip-rule="evenodd" d="M402.446 52.9001C402.446 55.5164 404.256 56.3502 407.939 55.4333C411.966 54.4274 413.432 55.2986 413.432 58.6943C413.432 61.2447 414.104 63.328 414.924 63.328C418.186 63.328 431.009 56.3273 431.009 54.5449C431.009 52.6938 414.708 49 406.532 49C404.285 49 402.446 50.7566 402.446 52.9001ZM392.861 59.0296C393.558 61.3937 393.033 63.328 391.695 63.328C390.357 63.328 389.262 62.2935 389.262 61.0298C389.262 59.7661 385.83 58.6055 381.634 58.4508C374.919 58.2015 374.394 58.6743 377.239 62.3852C379.019 64.7064 380.474 67.847 380.474 69.3658C380.474 71.0651 382.106 70.9878 384.723 69.1595C387.061 67.529 390.027 66.1936 391.315 66.1936C395.151 66.1936 393.969 71.3975 389.812 72.816C386.149 74.0625 386.149 74.1428 389.812 74.458C391.925 74.6414 393.657 75.9854 393.657 77.4468C393.657 78.9054 391.925 80.642 389.812 81.301C386.259 82.41 386.281 82.6765 390.084 84.82C393.022 86.4734 394.824 85.6883 396.375 82.0748C397.57 79.2894 400.495 74.4695 402.876 71.3631C405.258 68.2568 406.877 65.4342 406.473 65.0875C393.474 53.9317 391.044 52.8514 392.861 59.0296ZM705.659 79.7508C703.847 80.6534 700.186 84.4217 697.525 88.1211C693.685 93.4598 690.283 94.8983 681.046 95.0788C674.644 95.2078 664.956 96.8183 659.518 98.6608C651.155 101.498 649.62 103.12 649.562 109.178C649.499 115.874 648.761 116.342 638.238 116.342C632.049 116.342 626.259 117.27 625.371 118.408C624.486 119.542 626.949 124.357 630.847 129.108C637.561 137.286 638.9 143.387 634.226 144.496C633.064 144.771 631.739 142.419 631.28 139.266C630.19 131.767 627.033 129.334 618.321 129.28C610.288 129.231 609.395 131.203 615.02 136.567C620.467 141.759 616.703 145.155 609.947 141.141C605.476 138.484 604.621 136.481 605.834 131.498C607.17 126.013 606.961 125.741 604.21 129.371C602.477 131.661 600.961 138.372 600.842 144.281C600.646 154.116 601.132 155.027 606.563 155.027C612.935 155.027 617.771 159.604 617.771 165.63C617.771 167.679 616.288 169.355 614.475 169.355C612.645 169.355 611.18 166.808 611.18 163.624C611.18 154.46 604.933 156.999 601.558 167.536C598.535 176.969 589.579 183.228 584.712 179.305C580.777 176.132 582.607 172.602 588.658 171.693C594.252 170.857 594.701 169.831 594.701 157.893C594.701 150.8 593.89 142.659 592.901 139.799C591.803 136.63 592.121 132.996 593.719 130.486C597.999 123.761 585.666 125.259 580.419 132.102C575.209 138.897 574.818 146.124 579.25 153.763C585.661 164.819 581.623 167.172 571.834 158.082C563.32 150.176 554.052 147.491 554.052 152.932C554.052 159.073 548.188 165.025 546.931 160.162C546.182 157.271 544.191 157.56 537.853 161.475C527.994 167.564 527.686 167.587 527.686 162.191C527.686 155.597 522.663 157.033 512.655 166.49C507.65 171.218 502.062 175.086 500.241 175.086C496.248 175.086 495.789 167.495 499.672 165.687C501.183 164.985 501.72 163.429 500.865 162.228C500.01 161.031 497.804 160.804 495.961 161.727C493.489 162.965 492.973 165.782 493.992 172.439C495.233 180.528 494.917 181.282 490.969 179.648C484.775 177.084 479.348 180.448 479.348 186.855C479.348 192.549 473.989 194.332 471.657 189.414C470.91 187.838 469.172 186.549 467.793 186.549C465.986 186.549 466.024 187.512 467.922 189.987C471.405 194.529 471.266 198.011 467.604 198.011C463.95 198.011 457.376 188.858 457.376 183.775C457.376 181.706 455.646 178.367 453.535 176.353C447.416 170.519 451.883 168.467 459.509 173.611C467.832 179.224 480.141 178.37 481.048 172.12C481.938 165.974 464.547 155.503 449.659 153.222C443.028 152.205 437.601 150.262 437.601 148.901C437.601 147.542 439.282 146.43 441.336 146.43C444.102 146.43 444.43 145.594 442.602 143.209C440.802 140.863 438.278 140.828 433.312 143.089C429.559 144.794 425.042 145.465 423.271 144.576C415.866 140.871 390.934 163.403 379.314 184.305C375.181 191.738 367.818 200.467 362.953 203.705C354.639 209.236 354.107 210.35 354.107 222.257C354.107 237.181 356.726 240.305 364.014 234.078C371.083 228.037 375.438 228.344 378.2 235.075C381.528 243.187 380.986 249.904 376.67 254.019C373.364 257.174 373.722 257.447 379.417 256.111C387.155 254.297 393.657 247.603 393.657 241.451C393.657 239.041 395.782 234.115 398.381 230.51C402.582 224.678 402.703 223.75 399.479 222.137C394.094 219.443 395.087 210.302 401.556 203.006C404.693 199.473 408.673 193.031 410.402 188.698C412.511 183.408 415.288 180.818 418.852 180.818C427.799 180.818 427.973 186.913 419.303 196.687C414.864 201.691 411.25 208.224 411.267 211.21C411.333 221.796 414.282 223.85 428.311 223.097C443.797 222.263 448.352 227.67 433.206 228.908C418.652 230.097 417.184 231.135 420.439 237.935C423.914 245.19 421.698 248.096 415.818 243.993C411.582 241.035 411.234 241.545 411.234 250.73C411.234 257.73 410.098 261.097 407.389 262.123C399.117 265.255 378.505 267.267 373.961 265.384C369.749 263.642 369.345 262.046 370.619 252.2C371.555 244.978 371.237 240.995 369.723 240.995C366.851 240.995 364.698 251.36 365.557 261.046C366.06 266.717 365.093 268.405 360.89 269.187C357.974 269.729 352.042 274.62 347.707 280.053C343.372 285.489 337.105 290.69 333.783 291.613C330.461 292.539 327.741 294.886 327.741 296.834C327.741 299.092 325.548 299.926 321.699 299.132L315.656 297.883L322.817 305.976C327.677 311.469 329.971 316.598 329.958 321.948C329.936 330.313 330.698 329.964 310.365 330.912C304.571 331.181 302.79 332.56 302.493 336.993C302.282 340.145 301.41 345.518 300.553 348.931C299.674 352.441 300.008 355.949 301.322 357.009C302.598 358.038 303.082 360.067 302.394 361.517C301.708 362.964 302.781 363.333 304.778 362.333C306.804 361.319 309.214 362.213 310.229 364.354C311.618 367.282 314.035 367.552 320.444 365.488C327.317 363.273 329.281 361.004 331.272 352.969C332.61 347.57 335.686 342.197 338.107 341.03C340.529 339.861 343.11 336.864 343.846 334.368C344.58 331.872 347.366 329.829 350.038 329.829C352.708 329.829 357.93 328.43 361.641 326.722C368.005 323.791 369.028 324.401 379.634 337.468C385.817 345.088 391.424 353.255 392.095 355.619C392.866 358.35 393.373 357.456 393.483 353.163C393.608 348.28 394.602 346.882 397.067 348.117C403.215 351.192 398.304 344.988 391.818 341.486C381.324 335.815 372.331 315.501 380.315 315.501C384.556 315.501 404.423 339.211 406.409 346.641C407.646 351.272 410.723 355.525 413.524 356.482C417.228 357.745 417.833 357.347 415.945 354.886C413.139 351.226 412.522 343.905 415.08 344.612C415.987 344.862 418.602 344.008 420.891 342.713C425.505 340.105 431.009 347.232 431.009 355.817C431.009 364.371 436.483 367.285 450.531 366.216C463.937 365.196 463.967 365.21 463.967 373.131C463.967 377.498 463.097 381.773 462.031 382.63C459.267 384.86 457.602 398.446 459.867 400.274C460.913 401.116 461.77 403.761 461.77 406.151C461.77 410.295 474.74 440.644 485.35 461.331C488.093 466.673 490.334 474.011 490.334 477.639C490.334 487.48 492.726 487.826 505.852 479.889C531.454 464.403 537.134 459.878 542.66 450.556C548.355 440.948 548.362 440.874 543.972 436.228C541.544 433.658 538.771 428.978 537.813 425.826C536.104 420.213 535.998 420.23 532.707 426.543C530.762 430.277 527.086 432.99 523.975 432.99C519.455 432.99 518.823 431.964 519.991 426.543C521.064 421.568 520.868 421.075 519.128 424.379C517.181 428.079 516.408 427.884 513.455 422.946C507.362 412.762 505.352 406.836 506.575 402.678C508.524 396.053 513.16 397.956 521.103 408.644C526.308 415.648 529.809 418.169 532.678 416.983C535.11 415.974 538.58 417.393 541.175 420.453C544.576 424.471 548.735 425.505 559.745 425.081C571.002 424.646 574.774 425.629 578 429.835C580.237 432.752 583.427 435.847 585.088 436.713C587.599 438.02 587.562 438.782 584.875 441.215C582.091 443.736 582.17 444.41 585.453 446.052C587.549 447.101 590.647 446.464 592.336 444.633C595.687 441.005 599.284 445.149 596.988 449.995C596.291 451.465 597.304 458.236 599.238 465.039C601.174 471.842 602.989 479.341 603.274 481.706C603.56 484.07 605.79 491.007 608.229 497.122L612.667 508.238L617.415 498.217C620.028 492.704 622.166 485.018 622.166 481.135C622.166 476.049 624.943 471.478 632.126 464.75C637.605 459.62 643.65 452.31 645.561 448.505C647.629 444.393 651.162 441.587 654.278 441.587C657.161 441.587 659.518 440.298 659.518 438.722C659.518 433.922 663.959 435.529 665.455 440.871C666.226 443.627 668.667 448.96 670.878 452.72C673.09 456.48 674.898 461.959 674.898 464.899C674.898 471.037 677.247 471.765 681.051 466.804C685.403 461.128 688.567 468.254 688.75 484.158C688.842 492.082 689.719 497.919 690.696 497.131C691.676 496.34 692.476 493.268 692.476 490.302C692.476 480.235 697.123 481.107 705.339 492.712L713.527 504.284L720.578 497.085C729.354 488.127 729.459 481.754 721.04 469.249C713.422 457.935 712.862 452.943 718.467 446.33C722.898 441.1 729.828 439.954 729.828 444.453C729.828 449.121 738.589 447.722 744.871 442.054C748.078 439.157 752.339 436.022 754.338 435.082C756.34 434.145 761.117 427.425 764.955 420.15C770.371 409.882 771.375 406.039 769.435 402.993C767.519 399.982 767.754 398.469 770.441 396.508C773.502 394.276 773.239 392.958 768.365 386.101C761.226 376.054 761.349 373.93 769.378 368.514C777.758 362.863 777.76 361.027 769.382 363.213C763.287 364.801 756.195 360.82 756.195 355.808C756.195 351.275 765.498 341.291 769.721 341.291C773.276 341.291 774.018 342.621 773.078 347.306C772.149 351.945 772.718 353.009 775.57 351.954C784.941 348.487 785.857 348.633 785.877 353.59C785.888 356.413 787.265 359.829 788.938 361.178C790.719 362.611 791.48 366.127 790.772 369.652C789.381 376.59 791.625 379.326 796.645 376.813C801.123 374.572 801.077 368.606 796.509 358.519C792.936 350.63 793 350.338 800.576 340.165C805.498 333.554 810.318 329.829 813.946 329.829C817.971 329.829 821.812 326.293 827.167 317.65C836.768 302.153 838.858 296.677 840.554 282.546C842.352 267.594 839.39 261.06 833.112 266.135C823.563 273.855 815.183 258.584 823.759 249.088C835.32 236.284 849.196 228.968 863.653 228.051C871.781 227.535 879.807 228.22 881.488 229.576C883.613 231.287 887.394 228.607 893.924 220.755C903.893 208.771 909.309 206.662 911.447 213.927C912.568 217.732 913.49 217.486 917.775 212.236C920.532 208.855 924.602 206.545 926.814 207.101C930.042 207.912 928.688 210.663 919.994 220.97C893.195 252.753 894.069 251.174 895.774 264.608C896.625 271.322 897.798 277.861 898.38 279.139C899.72 282.085 916.591 258.473 916.591 253.653C916.591 251.681 917.722 249.578 919.102 248.979C920.976 248.162 920.985 246.348 919.135 241.841C914.868 231.441 921.82 223.847 937.464 221.821C945.147 220.827 953.211 217.772 956.793 214.503C960.172 211.416 966.847 208.21 971.624 207.373C982.008 205.556 982.596 202.307 973.731 195.727C965.276 189.454 965.269 185.563 973.72 187.982C978.639 189.391 980.652 188.721 981.645 185.345C983.493 179.064 988.479 179.686 991.295 186.549C992.836 190.303 995.896 192.28 1000.16 192.28C1006.03 192.28 1006.68 191.36 1006.75 182.967C1006.78 177.846 1008.27 171.149 1010.04 168.091C1016.55 156.873 1012.06 154.635 999.153 162.664C991.649 167.332 991.295 167.272 983.148 159.945C974.504 152.173 955.303 144.995 951.454 148.098C950.241 149.075 949.768 151.637 950.401 153.792C952.225 159.99 947.826 161.518 942.412 156.566C938.631 153.11 934.535 152.477 925.05 153.872C913.413 155.589 912.405 155.242 908.933 148.333C905.523 141.545 904.102 141.009 890.953 141.547C878.401 142.06 876.18 141.332 872.558 135.518C869.206 130.137 867.63 129.469 864.095 131.936C858.323 135.965 857.266 135.77 857.266 130.67C857.266 127.409 854.55 126.371 846.012 126.371C836.571 126.371 835.171 127.025 837.329 130.415C841.297 136.65 836.924 138.358 822.469 136.226C811.573 134.618 809.369 135.068 808.167 139.149C806.873 143.545 806.183 143.447 800.359 138.037C796.843 134.773 792.884 132.102 791.561 132.102C790.236 132.102 789.153 130.168 789.153 127.804C789.153 125.417 791.106 123.506 793.547 123.506C798.785 123.506 799.376 119.104 794.466 116.648C788.16 113.49 782.623 114.829 778.217 120.574C774.001 126.073 771.777 126.076 761.688 120.603C759.271 119.29 751.748 117.585 744.972 116.812C735.269 115.705 731.298 116.568 726.295 120.869C718.776 127.334 712.251 128.002 712.251 122.302C712.251 120.004 716.79 116.238 722.688 113.642C736.761 107.45 744.108 99.8443 742.219 93.4225C741.001 89.2875 738.806 88.6398 729.791 89.7717C721.176 90.8492 718.842 90.2503 718.842 86.9577C718.842 84.416 717.548 83.4216 715.547 84.4245C713.538 85.4275 712.251 84.4274 712.251 81.8655C712.251 77.4382 711.062 77.0571 705.659 79.7508ZM569.433 87.6111C566.412 89.8233 560.319 92.4511 555.894 93.4512C546.415 95.5918 525.928 117.196 534.122 116.41C536.736 116.158 541.878 112.516 545.547 108.318C549.216 104.117 559.058 98.0247 567.418 94.778C575.776 91.5312 582.616 87.6397 582.616 86.1324C582.616 82.175 575.818 82.9373 569.433 87.6111ZM525.058 125.735C524.296 130.902 532.195 143.565 536.178 143.565C539.259 143.565 539.456 138.805 536.475 136.401C535.266 135.426 534.278 131.756 534.278 128.245C534.278 120.611 526.141 118.396 525.058 125.735ZM247.543 180.818C246.796 182.394 248.327 183.683 250.944 183.683C254.02 183.683 255.304 185.041 254.574 187.526C252.739 193.759 256.306 198.352 263.178 198.607C270.196 198.868 283.797 190.902 283.797 186.529C283.797 181.677 272.927 180.058 265.881 183.867C259.926 187.082 258.689 186.939 256.345 182.758C253.315 177.353 249.575 176.528 247.543 180.818ZM315.623 238.198C313.855 241.932 316.513 258.189 318.891 258.189C322.716 258.189 323.287 267.852 319.763 272.932C316.348 277.85 316.346 278.248 319.71 278.248C321.71 278.248 323.347 279.538 323.347 281.114C323.347 282.69 322.193 283.979 320.782 283.979C319.374 283.979 318.778 284.707 319.46 285.595C321.619 288.412 336.178 283.581 337.329 279.664C337.936 277.6 334.469 270.476 329.622 263.831C323.329 255.203 321.488 250.87 323.177 248.666C326.739 244.021 326.023 240.935 321.866 243.015C319.079 244.411 318.53 243.695 319.6 240.061C321.125 234.88 317.908 233.376 315.623 238.198ZM301.541 262.393C298.503 267.462 297.393 281.122 300.032 281.022C304.431 280.859 309.407 274.096 310.906 266.247C312.158 259.682 311.706 258.61 307.847 258.988C305.356 259.232 302.519 260.765 301.541 262.393ZM846.504 278.606C846.381 285.896 845.663 295.889 844.907 300.815C844.019 306.6 844.408 309.77 846.005 309.77C847.365 309.77 848.477 305.941 848.477 301.262C848.477 294.605 849.251 293.143 852.028 294.533C855.143 296.092 855.231 295.467 852.746 289.43C851.186 285.644 849.196 278.678 848.321 273.95C846.911 266.33 846.704 266.86 846.504 278.606ZM474.953 305.961C474.953 307.019 473.244 310.348 471.154 313.36C467.553 318.55 467.553 318.982 471.167 321.619C479.332 327.579 486.587 337.603 485.063 340.821C483.032 345.108 471.774 345.1 462.667 340.807C456.848 338.062 453.827 338.32 445.959 342.24C434.52 347.936 428.926 348.593 432.596 343.807C433.951 342.039 434.571 338.933 433.975 336.901C432.701 332.571 438.053 318.091 442.843 312.907C446.548 308.898 455.376 311.248 454.585 316.034C454.306 317.71 455.317 319.673 456.829 320.398C458.567 321.229 459.098 320.086 458.274 317.289C457.369 314.208 459.202 311.598 464.314 308.686C472.82 303.844 474.953 303.296 474.953 305.961ZM527.686 309.532C527.686 310.976 524.981 314.727 521.674 317.871C515.764 323.484 515.731 323.682 519.765 329.496C522.024 332.752 525.717 336.179 527.976 337.113C533.012 339.196 533.401 344.157 528.528 344.157C525.851 344.157 525.357 345.744 526.524 350.604C529.635 363.568 528.965 368.48 523.955 369.411C521.297 369.904 517.001 368.827 514.406 367.016C510.469 364.265 509.926 362.09 511.117 353.811C512.176 346.438 511.387 341.46 508.03 334.376C501.999 321.65 502.286 319.26 510.658 312.604C518.08 306.703 527.686 304.97 527.686 309.532ZM843.292 328.975C841.073 332.812 839.601 336.337 840.022 336.807C840.442 337.279 844.678 336.205 849.433 334.422L858.079 331.181L852.705 326.588C847.596 322.223 847.128 322.344 843.292 328.975ZM363.399 347.561C364.757 352.874 369.488 353.754 369.488 348.693C369.488 346.197 367.923 344.157 366.009 344.157C364.096 344.157 362.92 345.687 363.399 347.561ZM838.957 346.068C838.15 347.117 837.478 350.665 837.465 353.948C837.434 360.419 824.903 372.781 818.297 372.856C812.223 372.925 808.646 377.117 810.187 382.355C811.742 387.645 816.697 388.745 818.815 384.275C819.562 382.699 819.125 381.41 817.846 381.41C816.567 381.41 815.519 380.12 815.519 378.544C815.519 376.968 817.002 375.678 818.815 375.678C820.628 375.678 822.111 377.045 822.111 378.713C822.111 380.43 823.306 380.771 824.857 379.501C826.369 378.266 830.058 376.816 833.057 376.28C839.798 375.074 839.864 374.985 840.189 366.689C840.337 362.964 841.864 357.743 843.582 355.083C847.858 348.478 843.547 340.079 838.957 346.068ZM382.084 361.706C383.576 363.666 385.349 364.546 386.024 363.663C386.701 362.78 385.481 361.178 383.315 360.101C380.184 358.548 379.931 358.874 382.084 361.706ZM412.333 364.216C413.08 365.792 414.126 367.082 414.66 367.082C415.194 367.082 415.629 365.792 415.629 364.216C415.629 362.64 414.581 361.35 413.302 361.35C412.023 361.35 411.586 362.64 412.333 364.216ZM450.784 375.678C450.784 377.254 451.713 378.544 452.852 378.544C453.99 378.544 455.53 377.254 456.277 375.678C457.024 374.102 456.092 372.813 454.21 372.813C452.327 372.813 450.784 374.102 450.784 375.678ZM802.701 387.313C803.105 390.912 804.753 394.422 806.366 395.116C808.359 395.973 809.062 394.279 808.563 389.834C808.159 386.235 806.511 382.725 804.898 382.031C802.905 381.175 802.202 382.868 802.701 387.313ZM768.515 431.793C766.188 439.699 766.983 442.504 770.477 438.722C774.073 434.827 774.955 427.259 771.81 427.259C770.732 427.259 769.248 429.299 768.515 431.793ZM727.631 455.915C727.631 457.491 728.561 458.781 729.699 458.781C730.837 458.781 732.377 457.491 733.124 455.915C733.871 454.339 732.94 453.05 731.057 453.05C729.174 453.05 727.631 454.339 727.631 455.915ZM768.646 460.692C766.346 463.692 766.935 484.035 769.378 486.004C770.586 486.978 771.575 486.322 771.575 484.548C771.575 482.597 773.533 482.004 776.519 483.049C780.324 484.382 780.017 483.709 775.179 480.121C770.571 476.705 769.545 474.61 771.334 472.278C772.674 470.53 773.772 466.776 773.772 463.939C773.772 458.726 771.336 457.182 768.646 460.692ZM775.174 497.466C775.871 499.83 776.829 501.765 777.303 501.765C777.778 501.765 778.167 499.83 778.167 497.466C778.167 495.102 777.209 493.168 776.038 493.168C774.869 493.168 774.48 495.102 775.174 497.466ZM622.236 509.883C622.19 516.015 623.099 519.03 624.776 518.302C628.834 516.537 629.118 512.084 625.56 505.948C622.473 500.621 622.302 500.825 622.236 509.883ZM778.167 507.496C778.167 509.072 779.156 510.362 780.364 510.362C781.572 510.362 782.561 512.402 782.561 514.898C782.561 521.612 787.938 518.102 788.757 510.854C789.322 505.842 788.357 504.63 783.814 504.63C780.707 504.63 778.167 505.92 778.167 507.496Z" fill="#787878"/>
</g>
<defs>
<filter id="filter0_d_56:16" x="243.354" y="46" width="773.646" height="477.48" filterUnits="userSpaceOnUse" color-interpolation-filters="sRGB">
<feFlood flood-opacity="0" result="BackgroundImageFix"/>
<feColorMatrix in="SourceAlpha" type="matrix" values="0 0 0 0 0 0 0 0 0 0 0 0 0 0 0 0 0 0 127 0" result="hardAlpha"/>
<feOffset dy="1"/>
<feGaussianBlur stdDeviation="2"/>
<feComposite in2="hardAlpha" operator="out"/>
<feColorMatrix type="matrix" values="0 0 0 0 0.258542 0 0 0 0 0.85 0 0 0 0 0.845775 0 0 0 1 0"/>
<feBlend mode="normal" in2="BackgroundImageFix" result="effect1_dropShadow_56:16"/>
<feBlend mode="normal" in="SourceGraphic" in2="effect1_dropShadow_56:16" result="shape"/>
</filter>
<linearGradient id="paint0_linear_56:16" x1="630.5" y1="0" x2="1149.44" y2="1401.62" gradientUnits="userSpaceOnUse">
<stop offset="0.244792" stop-color="#15A09F"/>
<stop offset="1" stop-color="#56FFFF"/>
</linearGradient>
</defs>
</svg>
