<svg width="100" height="100" viewBox="0 0 100 100" fill="none" xmlns="http://www.w3.org/2000/svg">
<path fill-rule="evenodd" clip-rule="evenodd" d="M0.736816 8.85633V17.0747H4.25561H7.77441V58.1667C7.77441 98.4755 7.81898 99.2586 10.1203 99.2586C12.0756 99.2586 12.4661 98.4755 12.4661 94.5624V89.8662H50H87.5338V94.5624C87.5338 98.4755 87.9244 99.2586 89.8797 99.2586C92.181 99.2586 92.2255 98.4755 92.2255 58.1667V17.0747H95.7443H99.2631V8.85633V0.637939H50H0.736816V8.85633ZM94.5714 8.85633V12.3785H50H5.42855V8.85633V5.33416H50H94.5714V8.85633ZM87.5338 26.4672V35.8596H50H12.4661V26.4672V17.0747H50H87.5338V26.4672ZM41.1701 25.3459C39.6008 27.8889 42.6645 28.928 50.7026 28.5793C56.9602 28.3081 58.797 27.8291 58.797 26.4672C58.797 25.097 56.9285 24.6298 50.3929 24.3633C45.0643 24.1461 41.6897 24.5053 41.1701 25.3459ZM87.5338 62.8629V85.17H50H12.4661V62.8629V40.5558H50H87.5338V62.8629Z" fill="white"/>
</svg>
