<svg width="84" height="101" viewBox="0 0 84 101" fill="none" xmlns="http://www.w3.org/2000/svg">
<path fill-rule="evenodd" clip-rule="evenodd" d="M43.0522 1.47487C40.3949 2.59689 36.7368 6.06773 35.7512 8.40271C34.7638 10.7406 35.0798 12.9562 36.6135 14.4571C38.3566 16.163 40.1706 18.8081 40.1706 19.6447C40.1706 20.0638 34.4098 26.0721 27.3693 32.9966L14.5674 45.5869L9.76208 56.4449C7.11868 62.4167 4.95624 67.6219 4.95624 68.0121C4.95624 68.4024 8.6051 72.0404 13.0648 76.0972L21.1734 83.4731V86.0386V88.6041L18.7408 88.8879C11.7457 89.7035 5.38298 91.914 2.06031 94.6828C0.542389 95.9477 0.322762 96.3715 0.322762 98.035C0.322762 101.443 -1.01446 101.257 23.4901 101.257C47.9753 101.257 46.6575 101.439 46.6575 98.0597C46.6575 96.4758 46.4203 95.9825 45.1516 94.9251C41.7261 92.0699 36.0607 89.9407 29.6295 89.0916L25.8069 88.5865L25.8166 86.0151L25.8259 83.4438L32.5286 79.462C36.2155 77.272 39.3528 75.1504 39.5006 74.7468C40.0015 73.3808 39.2106 72.5551 32.9758 67.9359C29.553 65.4001 26.7484 63.1992 26.7433 63.045C26.7377 62.8903 29.1286 59.3068 32.0565 55.0815L37.379 47.3984L37.385 38.3757L37.3906 29.3526L39.4274 27.2687L41.4643 25.1844L41.721 26.6513C41.8623 27.4582 42.1005 29.5689 42.2497 31.3418C42.8001 37.8795 45.027 41.795 49.2587 43.6681C51.4935 44.6568 52.156 44.7612 54.7911 44.5386C60.8748 44.0248 66.7519 41.1059 73.0845 35.4531C79.5144 29.7131 83.0015 24.0607 83.5821 18.4367C83.9523 14.8532 82.4552 11.975 79.178 9.96901C75.8947 7.95927 73.1939 7.35698 65.6547 6.95377C56.8266 6.48141 55.2683 6.03001 51.1524 2.74904C48.4136 0.566196 46.0751 0.198617 43.0522 1.47487ZM48.8913 6.4877C50.0835 7.38464 51.9675 8.53055 53.0776 9.03351C55.456 10.1115 60.3962 11.125 63.338 11.1384L65.4231 11.148L62.4081 12.7843C57.0879 15.6721 50.8957 21.4101 47.8284 26.2946L46.7353 28.0357L46.4337 25.9811C45.4963 19.5969 44.0855 16.0452 41.2368 12.9004L39.5433 11.0307L40.6154 9.20242C41.5755 7.56571 45.1229 4.85644 46.3063 4.85644C46.5356 4.85644 47.6986 5.59034 48.8913 6.4877ZM77.7995 14.5204C79.1293 15.7233 79.2007 15.9475 78.9667 18.1878C78.0201 27.2599 64.4635 39.5568 54.5085 40.3733C51.9434 40.5837 51.7321 40.5271 50.3286 39.2576C48.9284 37.9905 48.863 37.7927 49.0928 35.5013C49.3366 33.0674 51.4346 28.3278 52.2677 28.3278C52.5128 28.3278 53.2704 28.6577 53.951 29.0613C54.8115 29.571 56.1135 29.7948 58.2208 29.7948C61.8562 29.7948 64.1155 28.7281 66.0333 26.1064C67.0675 24.6931 67.2755 23.9441 67.2714 21.6523C67.2676 19.6728 67.0123 18.5155 66.3641 17.5402C65.4694 16.1952 65.4694 16.178 66.3692 15.5636C67.8385 14.5602 72.2148 13.3078 74.3782 13.2722C76.0231 13.245 76.6375 13.4692 77.7995 14.5204ZM62.3367 19.7553C64.2045 23.4626 60.2762 27.016 56.1779 25.3264C55.5287 25.059 54.9977 24.6646 54.9977 24.4496C54.9977 23.94 60.804 18.6878 61.3674 18.6878C61.6051 18.6878 62.0411 19.1681 62.3367 19.7553ZM32.6019 44.5353C32.4999 44.6271 30.0766 44.6489 27.2164 44.5835L22.0162 44.4644L27.2706 39.2613L32.5254 34.0586L32.6561 39.2131C32.7279 42.0481 32.7033 44.4431 32.6019 44.5353ZM28.5128 52.3232C27.1941 54.2248 25.199 57.1235 24.0786 58.764L22.0417 61.7465L16.9208 63.0815C14.1041 63.8158 11.7114 64.3364 11.6034 64.2387C11.4955 64.141 12.9124 60.6421 14.7519 56.4634L18.0968 48.8653H24.5035H30.9102L28.5128 52.3232ZM26.33 68.3994C28.0759 69.6916 30.3852 71.4553 31.4611 72.3191L33.4178 73.8896L28.6597 76.7552L23.902 79.6209L17.8568 74.1529L11.8119 68.6844L16.8402 67.3943C19.6059 66.6848 22.158 66.0921 22.512 66.077C22.8655 66.0619 24.5841 67.1068 26.33 68.3994ZM30.5733 93.4853C33.7885 94.0038 40.1706 96.2307 40.1706 96.8338C40.1706 96.9612 32.6125 97.0614 23.3743 97.0563C6.61965 97.0471 6.58073 97.045 7.73632 96.2273C11.6131 93.4849 22.4796 92.1802 30.5733 93.4853Z" fill="white"/>
</svg>
