<svg width="90" height="102" viewBox="0 0 90 102" fill="none" xmlns="http://www.w3.org/2000/svg">
<path fill-rule="evenodd" clip-rule="evenodd" d="M20.7911 3.73141C8.88389 7.87244 8.01448 8.70208 11.1059 12.9831C12.8 15.329 14.3699 16.3098 16.1696 16.1494C19.718 15.8337 21.1997 19.6253 18.2263 21.4133C16.8167 22.2613 16.3037 23.4935 16.762 24.9342C17.3035 26.6394 16.6564 27.4956 13.9625 28.642C8.44049 30.9909 2.99425 37.201 1.438 42.9216C0.1463 47.6726 0.318942 48.7791 3.44386 55.7513C5.32427 59.9475 6.71409 64.7609 6.53275 66.4467C5.29695 77.9053 5.73662 79.9999 10.1669 83.7598C12.5218 85.7573 15.1076 87.392 15.9149 87.392C16.721 87.392 18.0773 88.0817 18.9281 88.9246C20.2744 90.259 19.4882 90.4572 12.8695 90.4572C3.33083 90.4572 -0.0474548 92.6426 0.537535 98.4337L0.918835 102.207H45.0104H89.102L89.4833 98.4337C89.9578 93.7318 86.459 90.4572 80.9581 90.4572C77.283 90.4572 77.2234 90.3846 79.0951 88.1859C83.4819 83.0344 79.6789 76.1531 72.4466 76.1531C70.4581 76.1531 62.8359 78.0647 55.5067 80.4014C45.306 83.6535 41.7141 84.3943 40.1815 83.5616C39.0798 82.9628 38.3855 81.8563 38.6376 81.1013C38.8898 80.3462 39.3754 77.8175 39.717 75.4818L40.3392 71.2345L56.6419 65.7274C67.5282 62.0492 73.08 59.641 73.352 58.4804C73.9656 55.8566 71.8604 56.254 54.6063 62.0145L38.742 67.3121L34.734 64.2602C32.5307 62.5826 29.2778 60.7057 27.5067 60.0916C23.2627 58.6183 18.009 47.8023 20.0285 44.6973C22.7336 40.5399 24.7258 41.3297 27.7837 47.7748C29.8231 52.0701 31.8724 54.5569 34.4533 55.8658C39.122 58.2321 40.9875 58.2321 47.7019 55.8637C51.8515 54.3996 53.4512 53.1265 54.6907 50.3035C56.2296 46.7959 55.965 45.9775 48.4632 31.0012C41.339 16.7788 40.3293 15.332 37.3348 15.046C33.2311 14.6536 31.8885 12.0727 34.5353 9.66659C36.5709 7.81625 36.1474 4.51507 33.528 1.82283C31.8426 0.0899915 30.8179 0.24325 20.7911 3.73141ZM31.3483 6.17843C31.3483 6.78329 17.9158 11.7846 16.29 11.7846C13.4135 11.7846 15.797 9.90465 21.1016 7.98892C26.8447 5.91483 31.3483 5.1189 31.3483 6.17843ZM28.6195 15.566C29.1673 18.6107 25.3108 19.4925 24.0054 16.6204C23.3422 15.1634 23.4714 14.0682 24.3631 13.589C26.487 12.4487 28.201 13.2457 28.6195 15.566ZM42.4047 29.5278C45.2042 35.0727 47.4945 39.9586 47.4945 40.3867C47.4945 41.2306 32.7468 46.0297 32.1419 45.3829C31.1197 44.2897 21.4953 24.6583 21.8419 24.3732C22.4095 23.9063 36.8963 19.0818 37.1261 19.283C37.2304 19.3729 39.6052 23.984 42.4047 29.5278ZM21.3053 34.4505C22.6206 37.5524 21.7152 39.2965 18.7592 39.3558C18.3245 39.3639 17.0129 41.0283 15.8454 43.0534C13.806 46.5875 13.8259 46.9707 16.3248 52.6085C17.7569 55.8392 18.9281 58.747 18.9281 59.0689C18.9281 59.3917 17.2911 60.3276 15.2902 61.1491L11.6511 62.6418L8.76962 56.8814C3.64009 46.6294 6.05457 37.5105 15.1263 32.876C19.4572 30.664 19.7304 30.7335 21.3053 34.4505ZM49.8556 48.8925C47.7218 52.7444 40.9938 54.4231 36.7821 52.1528C35.0408 51.2149 33.805 50.2964 34.0347 50.1135C35.6146 48.8557 49.5513 44.9027 50.3486 45.4861C50.8939 45.8856 50.6716 47.4182 49.8556 48.8925ZM31.3197 67.493C35.7288 71.118 35.5885 77.2167 31.0092 80.9827C23.5099 87.1519 10.9109 82.8954 10.9109 74.1914C10.9109 65.0735 23.3931 60.9764 31.3197 67.493ZM75.4399 83.2969C75.4399 85.2454 74.2736 86.3243 70.4718 87.8906C66.3148 89.604 62.4956 89.9923 47.0747 90.2722C25.5108 90.6646 22.3573 90.1496 29.2654 87.3665C33.7143 85.5744 34.2819 85.558 38.2365 87.109C42.3761 88.7335 42.7189 88.6835 55.8446 84.5332C71.1388 79.6964 75.4399 79.4256 75.4399 83.2969ZM84.519 96.8429C84.9102 98.5155 82.3716 98.6309 45.1011 98.6309C12.7329 98.6309 5.26589 98.3755 5.26589 97.269C5.26589 96.519 5.64595 95.5934 6.11171 95.2112C6.57622 94.8281 24.3147 94.637 45.5284 94.7852C81.1258 95.0345 84.1327 95.1929 84.519 96.8429Z" fill="white"/>
</svg>
