<svg width="108" height="100" viewBox="0 0 108 100" fill="none" xmlns="http://www.w3.org/2000/svg">
<path fill-rule="evenodd" clip-rule="evenodd" d="M28.2461 1.71766C23.1179 3.62275 21.8955 7.86286 21.8955 23.7478V38.1878H13.5557C6.07101 38.1878 4.93559 38.532 2.50125 41.5403C-0.0900939 44.7402 0.140126 46.186 0.473614 72.112L0.473726 100.302L5.66875 100.271C9.08232 100.271 31.1419 100.302 57.0943 100.302C101.873 99.9562 103.16 100.302 107.053 100.302C107.053 97.7801 106.826 90.978 107.053 69.4118C106.67 43.5312 107.517 41.8716 104.5 39.5C102.275 37.75 98.711 38.1878 93.2545 38.1878H85.7465L85.2884 22.4618C84.6396 0.19208 85.8554 1.07212 55.2757 0.727919C41.9634 0.577883 30.1497 1.01035 28.2461 1.71766ZM79.4699 6.48478C81.3683 8.52351 81.6019 11.7196 81.2931 31.3858V52.2883C81.2931 53.3929 80.3976 54.2883 79.2931 54.2883H53.3629H28.4646C27.3844 54.2883 26.4994 53.4306 26.4656 52.3509L25.7884 30.7113C25.7884 9.26233 26.0232 6.66004 28.0592 5.50766C29.3672 4.76756 40.2881 4.2065 53.8106 4.1838C75.0605 4.14976 77.4988 4.36788 79.4699 6.48478ZM33.3276 9.9165C32.013 10.197 31.4137 11.4521 31.3396 12.7942C31.1553 16.1359 31.1155 23.1013 31.2656 30.681L31.6277 48.9047H53.6874H75.747V29.3622V12.7724C75.747 11.1341 74.4327 9.79877 72.7946 9.77277L53.9832 9.47417C41.7096 9.27854 35.9171 9.36397 33.3276 9.9165ZM72.503 20.5365C72.503 26.9805 72.1565 28.1014 70.1672 28.1014C68.8826 28.1014 67.171 28.7431 66.3626 29.5286C65.27 30.5902 64.3525 29.7026 62.7746 26.0614C60.7581 21.4052 60.5648 21.2867 58.7935 23.6142C57.7697 24.9607 56.9314 26.3968 56.9314 26.8053C56.9314 27.2138 55.2744 28.1556 53.2501 28.8982C49.8308 30.1527 49.4648 29.98 48.0997 26.4661C46.854 23.2599 46.3285 22.9283 44.6441 24.2862C43.5515 25.1675 42.6575 26.7309 42.6575 27.7597C42.6575 28.9486 41.9087 29.3534 40.6046 28.8667C39.4757 28.4456 37.7239 28.1014 36.7118 28.1014C35.3285 28.1014 34.8717 26.2266 34.8717 20.5365V12.9717H53.6874H72.503V20.5365ZM64.7068 36.927C65.2622 36.927 66.6727 35.5086 67.8419 33.775C71.1988 28.7986 72.503 30.0329 72.503 38.1878V45.7527H53.6874H34.8717V38.1878C34.8717 30.517 35.8463 29.0974 38.7646 32.5142C39.6535 33.5544 41.1847 34.4054 42.167 34.4054C43.1506 34.4054 43.9551 33.5544 43.9551 32.5142C43.9551 31.474 44.539 30.623 45.2527 30.623C45.9664 30.623 46.5504 31.4047 46.5504 32.3604C46.5504 33.3148 47.3938 34.7761 48.4241 35.6082C49.9294 36.8211 50.6289 36.6042 51.981 34.5012C52.9062 33.0614 54.6282 31.8838 55.8077 31.8838C56.9859 31.8838 58.3575 30.8915 58.8532 29.6774C59.5734 27.9135 60.1496 28.4178 61.7262 32.199C62.8097 34.8 64.1515 36.927 64.7068 36.927ZM21.8955 47.572C21.8955 58.1893 22.4043 58.3608 53.9767 58.3608C78.5589 58.3608 81.4181 58.0233 83.842 55.6681C85.7456 53.8185 85.4792 51.6369 85.4792 47.0135V40.7094H91.6779C95.1893 40.7094 99.8676 40.888 101.5 42C104.325 43.9215 103.646 45.1828 103.646 71.0407V97.4459H53.6874H3.7288V70.4015C3.7288 39.5482 3.24349 40.8141 15.083 40.7472L21.8955 40.7094V47.572Z" fill="white"/>
</svg>
