<svg width="95" height="96" viewBox="0 0 95 96" fill="none" xmlns="http://www.w3.org/2000/svg">
<path fill-rule="evenodd" clip-rule="evenodd" d="M1.29127 0.78172C0.856602 1.21861 0.639006 3.27012 0.639006 6.93255C0.639006 11.4314 0.507644 12.8704 1.35078 14.1085C1.69913 14.6201 2.25307 14.9418 2.82833 15.1701C3.41682 15.4036 4.04424 15.5236 4.67739 15.5236H24.8095C39.146 15.5236 46.3109 15.3351 47.1839 14.9358C49.3066 13.9635 49.6881 12.5496 49.5248 6.25525L49.415 2.01122C49.3922 1.13204 48.673 0.431152 47.7935 0.431152C46.9087 0.431152 46.18 1.12618 46.1381 2.00998L45.9494 5.99153L45.686 11.5519H25.1383H4.5905L4.32706 5.99153C4.22962 3.93332 4.21246 2.72988 4.15521 1.99201C4.06022 0.767595 2.53066 0.0847704 1.44937 0.66703C1.38804 0.700057 1.33466 0.7381 1.29127 0.78172ZM14.6826 18.0808C14.0346 18.8 13.8106 20.0677 13.8106 23.0105C13.8106 29.1995 13.494 29.0274 24.8748 29.0274C36.2762 29.0274 35.939 29.2138 35.939 22.9184C35.939 17.0201 36.116 17.1123 24.7831 17.1123C16.5119 17.1123 15.4639 17.2129 14.6826 18.0808ZM32.2509 22.9374V25.0557H24.8748H17.4987V22.9374V20.8192H24.8748H32.2509V22.9374ZM24.0392 34.4633C23.0118 35.1618 19.6009 41.8141 17.9565 46.3265C16.6673 49.8629 16.3907 51.3456 16.5625 53.7911C17.1631 62.3451 26.8216 65.1904 31.8937 58.3072C33.3426 56.3415 33.6424 51.9123 32.5755 48.2244C31.6229 44.9316 27.3674 36.1097 26.1325 34.8684C25.2336 33.965 24.8743 33.8956 24.0392 34.4633ZM28.6298 48.2864C30.0249 52.3624 29.9169 54.8005 28.2526 56.7884C25.3748 60.2263 20.133 57.8571 20.133 53.1191C20.133 50.9548 22.5461 44.0504 24.1904 41.5091L25.0234 40.2222L26.3327 42.8128C27.0534 44.2374 28.0866 46.7003 28.6298 48.2864ZM40.4174 50.4009C36.5354 52.8104 35.3868 56.7127 37.6049 59.9526C39.8241 63.1945 41.5375 63.7135 50.0242 63.7135C56.8382 63.7135 57.639 63.8125 58.5942 64.7726C59.1738 65.3551 59.6479 66.401 59.6479 67.0969C59.6479 69.7462 58.3039 70.431 47.4663 73.3049L37.1281 76.0453L30.3432 72.439C26.6108 70.4553 22.1757 67.8594 20.4866 66.67C17.6836 64.6964 17.1283 64.5084 14.1278 64.5163C9.00879 64.5301 6.23695 66.9671 6.30334 71.3953C6.37394 76.0824 6.53885 76.2175 27.6488 88.9253C33.0865 92.1985 38.2778 95.0406 39.1845 95.2408C41.5153 95.7555 83.7615 85.0251 84.4538 83.7425C85.0761 82.5907 84.5708 81.3113 83.3379 80.9184C82.8011 80.7468 73.0166 83.0016 61.5942 85.9285C50.1723 88.8559 40.5796 91.2506 40.2772 91.2506C39.3626 91.2506 12.562 74.8501 11.5715 73.684C10.3223 72.2135 10.3739 69.724 11.6684 69.0276C13.5456 68.0183 15.691 68.4223 18.0814 70.2355C19.3549 71.202 23.5972 73.7465 27.5091 75.8907C33.7109 79.2905 34.959 79.7872 37.2562 79.7703C40.2277 79.748 59.0995 74.7876 61.0173 73.5246C64.1658 71.4509 64.8539 65.1491 62.2385 62.3351C59.8518 59.7672 58.6648 59.477 50.5458 59.477C43.1054 59.477 42.9495 59.4532 41.7076 58.1245C40.5227 56.8568 40.6808 56.6591 41.2408 55.3443C41.7336 54.4612 42.661 53.9089 43.6722 53.8962L53.8724 53.7689C60.4488 53.6868 67.3291 53.8722 69.3576 54.1857C73.7585 54.8661 77.6488 56.8594 82.2647 60.7993C87.7141 65.4505 94.4211 67.0841 94.4211 63.7596C94.4211 62.4733 93.6492 61.9141 90.4085 60.8523C88.6925 60.2894 86.4912 58.8929 84.3495 57.0082C77.1388 50.6614 72.3401 49.4366 54.6427 49.4265C43.2445 49.4202 41.842 49.516 40.4174 50.4009Z" fill="white"/>
</svg>
