<svg width="107" height="95" viewBox="0 0 107 95" fill="none" xmlns="http://www.w3.org/2000/svg">
<path fill-rule="evenodd" clip-rule="evenodd" d="M83.4455 3.13338C79.8168 7.64108 79.5974 14.1211 82.8971 19.3341C85.3147 23.153 85.7714 28.5233 84.2529 35.2728C83.6106 38.1302 81.686 39.6248 75.0998 42.3863C72.435 43.5035 69.6297 44.5024 67.4471 45.1433C65.2419 45.7909 62.8662 46.5348 61.8086 48.5753V48.5753C61.5415 49.0906 61.5917 49.777 62.0593 50.1208L62.4725 50.4246C63.1022 50.8876 63.865 51.134 64.6466 51.1268L65.1727 51.122C67.1401 51.1039 69.0992 50.8276 70.973 50.2275C74.0171 49.2526 77.0423 48.1521 78.4598 47.4826C82.9297 45.371 83.4365 46.8596 83.4365 50.1982C83.4365 52.0775 83.3276 54.8965 83.4365 58.1853C83.801 63.4782 84.5399 65.7025 86.6417 65.7025C88.6664 65.7025 89.009 61.9439 89.009 50.1982C89.009 42.3863 89.3013 33.8831 89.7111 30.1691C90.1931 25.7962 91.0536 23.418 92.1539 23.418C95.2584 23.418 99.7692 16.321 99.7692 11.4374C99.7692 5.2809 95.8571 0.396484 90.9028 0.396484C88.5551 0.396484 85.3099 0.81513 83.4455 3.13338ZM10.416 5.56459C5.61715 11.5264 7.68983 22.1226 13.6746 24.9501C16.1644 26.1271 16.614 27.3282 16.614 32.8123V39.2848L8.78049 38.6648L0.947021 38.0449V66.674V95.3017H53.9736H107V65.2723V35.6952L100.845 37.5129C97.142 38.6153 96.625 38.568 94.7629 39.1696C93.5703 39.5549 92.3893 41.0279 93.3845 41.7898C94.1007 42.3381 95.5205 42.0272 97.9085 41.681L102.18 41.061V65.1869V89.3114H53.9736H5.76762V66.8477V44.3841H9.4626C16.2837 44.3841 17.8167 46.5196 17.8372 56.0427C17.8577 65.3531 19.1122 69.3801 21.437 67.595C22.5529 66.7369 22.706 61.6272 22.06 46.6469L21.2056 26.834L24.3329 22.9478C30.4732 15.3177 26.3841 2.45198 17.8191 2.45198C15.4715 2.45198 12.2804 3.24634 10.416 5.56459ZM93.6953 7.62161C96.8974 12.4153 92.1949 19.7789 88.019 16.5112C85.3412 14.4161 84.6868 10.4266 86.5608 7.62161C88.4215 4.83462 91.8345 4.83462 93.6953 7.62161ZM21.3863 10.6168C23.2604 13.4217 22.606 17.4113 19.9281 19.5064C14.2037 21.5387 10.4725 14.5868 13.6746 9.79304C15.5353 7.00605 19.5256 7.82977 21.3863 10.6168ZM47.291 12.1188C45.5472 14.2843 44.3324 17.5296 44.3324 20.0215C44.3324 24.9665 47.3296 30.9059 49.8242 30.9059C51.1342 30.9059 51.5633 32.9905 51.5633 39.3582V47.809L43.3393 46.8596C38.8164 46.3369 33.3655 45.1523 31.2264 44.2253C28.1569 42.8953 26.6672 42.808 26.5462 44.1202C26.3573 46.1691 27.9836 47.9582 29.7774 48.9662C33.7159 51.1793 41.1294 53.3695 47.6899 53.3695H51.4536L51.8091 63.4782C52.0839 71.2686 52.5804 73.5868 53.9736 73.5868C55.48 73.5868 55.8367 70.0331 56.1151 52.2464C56.3851 35.0347 56.7804 30.9059 58.1566 30.9059C60.6224 30.9059 63.6148 24.9396 63.6148 20.0215C63.6148 14.2783 58.7556 8.44228 53.9736 8.44228C51.6259 8.44228 49.1554 9.80058 47.291 12.1188ZM57.5408 16.6071C60.7429 21.4008 56.0404 28.7644 51.8646 25.4967C49.1867 23.4016 48.5323 19.412 50.4063 16.6071C52.2671 13.8201 55.6801 13.8201 57.5408 16.6071Z" fill="white"/>
</svg>
