<svg width="108" height="102" viewBox="0 0 108 102" fill="none" xmlns="http://www.w3.org/2000/svg">
<path fill-rule="evenodd" clip-rule="evenodd" d="M82.5421 2.68216C79.7959 3.9362 69.3279 13.4151 53.9535 28.5674L29.6992 52.4746L30.3004 56.8621C30.8843 61.1235 30.7576 61.3461 25.8675 64.61C16.0158 71.1855 8.42831 79.1443 4.53488 86.9865C-0.975935 98.0862 -1.24135 100.01 2.534 101.447C7.03517 103.16 17.9095 102.033 23.416 99.2841C29.8053 96.0944 37.9194 88.4907 40.1889 83.5657C42.5343 78.4775 45.6455 76.5472 51.0177 76.8482C55.169 77.0814 55.6597 76.6776 79.4883 53.4467C103.866 29.6794 108 24.5371 108 17.9807C108 12.6084 103.582 5.8358 98.2935 3.09876C92.6094 0.157136 88.3216 0.0437115 82.5421 2.68216ZM96.1854 6.53967C102.317 9.64242 105.345 17.6956 102.469 23.2534C100.617 26.83 53.5212 72.7406 51.7024 72.7406C49.5682 72.7406 34.3347 57.8787 34.3347 55.7978C34.3347 54.0922 80.9562 8.11066 84.7088 6.11459C87.807 4.46622 92.4274 4.63795 96.1854 6.53967ZM60.8022 35.7566C60.3851 36.416 62.49 39.3131 65.5926 42.3491C69.9594 46.6221 71.4057 47.4903 72.4532 46.4652C73.5008 45.4401 72.658 44.0504 68.4525 39.8728C62.8464 34.3033 62.0057 33.8507 60.8022 35.7566ZM54.3023 42.1169C53.8852 42.7763 55.9901 45.6734 59.0927 48.7093C63.4596 52.9824 64.9058 53.8505 65.9533 52.8255C67.0009 51.8004 66.1581 50.4107 61.9527 46.2331C56.3465 40.6636 55.5059 40.2109 54.3023 42.1169ZM47.8024 48.4772C47.3853 49.1365 49.4902 52.0336 52.5928 55.0696C56.9597 59.3426 58.4059 60.2108 59.4535 59.1858C60.501 58.1607 59.6582 56.771 55.4528 52.5933C49.8466 47.0239 49.006 46.5712 47.8024 48.4772ZM39.2713 68.5597L43.7476 72.8582L40.3947 76.3267C38.552 78.2337 35.7928 81.9047 34.2643 84.4827C29.6916 92.1988 19.1769 98.0396 9.68929 98.135C4.1243 98.1912 3.92281 97.1969 7.92132 89.4013C12.1874 81.0842 17.4447 75.3515 26.0408 69.6442C30.3047 66.8128 34.0183 64.4436 34.2935 64.3779C34.5687 64.3132 36.809 66.1948 39.2713 68.5597Z" fill="white"/>
</svg>
