<svg width="108" height="100" viewBox="0 0 108 100" fill="none" xmlns="http://www.w3.org/2000/svg">
<path fill-rule="evenodd" clip-rule="evenodd" d="M15.9215 2.08188C9.81579 4.60275 3.65397 10.87 1.90286 16.3406C1.05657 18.9845 0.701712 29.6541 0.933406 45.4464L1.29924 70.3782L13.1888 70.6951L25.0783 71.012V76.0681C25.0783 80.2567 24.4515 81.6562 21.42 84.2291C14.635 89.9889 18.4677 99.7422 27.5171 99.7422C36.5666 99.7422 40.3993 89.9889 33.6143 84.2291C30.5828 81.6562 29.956 80.2567 29.956 76.0681V71.012L41.8455 70.6951L53.7351 70.3782L54.096 62.8986L54.4557 55.4191H81.2285C107.187 55.4191 108 55.3515 108 53.203C108 51.0544 107.187 50.9868 81.1724 50.9868H54.3448V42.1222V33.2576H81.1724C107.187 33.2576 108 33.19 108 31.0415C108 28.8929 107.187 28.8253 81.1724 28.8253H54.3448L54.3179 23.5619C54.2692 14.0668 47.8805 5.40057 38.2262 1.73616C32.1681 -0.563098 21.9468 -0.404643 15.9215 2.08188ZM38.5409 6.99952C42.1699 8.74364 44.7393 11.0784 46.6587 14.376C49.3365 18.9767 49.467 20.3009 49.467 42.8502V66.4999H27.5171H5.56727V42.8502C5.56727 20.3009 5.69775 18.9767 8.37563 14.376C13.8034 5.0482 27.5074 1.69738 38.5409 6.99952Z" fill="white"/>
</svg>
