<svg width="108" height="101" viewBox="0 0 108 101" fill="none" xmlns="http://www.w3.org/2000/svg">
<path fill-rule="evenodd" clip-rule="evenodd" d="M31.6356 2.32923C23.4834 7.32173 22.3727 22.0416 29.5873 29.5003C33.5389 33.5859 38.6738 34.3123 44.1357 31.5579C47.8361 29.6924 51.7812 22.2549 51.7477 17.2075C51.7195 12.8695 48.6102 5.8849 45.5128 3.19914C42.1361 0.271632 35.6598 -0.134821 31.6356 2.32923ZM61.6288 4.24959C56.6357 9.11857 55.1547 15.2037 57.1781 22.5336C59.0132 29.1794 63.452 33.113 69.1141 33.113C74.8943 33.113 79.1523 30.1886 81.4204 24.6598C85.6076 14.455 81.4063 3.87269 72.6635 1.20016C71.1219 0.72894 69.4838 0.67407 67.8747 0.770332C65.7467 0.897638 64.5734 1.37742 61.6288 4.24959ZM42.345 6.73686C48.0494 11.1128 48.6416 20.9004 43.5272 26.2825C39.7965 30.2076 34.8186 29.5837 31.5068 24.7749C26.1976 17.065 30.2704 5.12372 38.3631 4.67504C39.0268 4.63915 40.8185 5.56607 42.345 6.73686ZM74.5966 7.54554C83.4048 15.2206 76.4641 32.5038 66.374 28.0212C62.5588 26.3258 60.0547 20.2047 60.9294 14.716C61.6819 10.0001 63.0839 7.7303 66.387 5.88384C69.6316 4.06906 70.9005 4.3256 74.5966 7.54554ZM6.73515 26.6699C0.323812 30.4821 -1.97461 41.3297 1.87739 49.6002C4.34145 54.8925 7.76689 57.3945 12.55 57.3945C18.0053 57.3945 22.0609 54.8038 24.5953 49.7005C28.6487 41.5345 27.0377 32.9346 20.4391 27.5208C16.2904 24.1172 11.5269 23.8216 6.73515 26.6699ZM87.9324 26.6699C81.5211 30.4821 79.2226 41.3297 83.0746 49.6002C85.5387 54.8925 88.9641 57.3945 93.7472 57.3945C99.2026 57.3945 103.258 54.8038 105.793 49.7005C109.846 41.5345 108.235 32.9346 101.636 27.5208C97.4877 24.1172 92.7241 23.8216 87.9324 26.6699ZM17.4445 31.0184C20.8959 33.6651 22.9692 39.5296 22.0825 44.1379C21.2316 48.5582 16.9162 53.1717 13.6304 53.1717C4.82972 53.1717 0.933333 38.2512 7.94769 31.4112C11.1057 28.3316 13.7961 28.2197 17.4445 31.0184ZM98.6418 31.0184C102.093 33.6651 104.166 39.5296 103.28 44.1379C102.429 48.5582 98.1134 53.1717 94.8277 53.1717C86.027 53.1717 82.1306 38.2512 89.1449 31.4112C92.303 28.3316 94.9933 28.2197 98.6418 31.0184ZM43.5673 39.8886C38.0762 42.2207 32.7507 47.5003 26.8656 56.4476C18.6766 68.8966 16.0674 74.9311 16.0555 81.4544C16.0414 88.7104 19.1183 94.5601 24.919 98.3027L29.4195 101.207H53.9367H78.454L82.9545 98.3027C88.7552 94.5601 91.832 88.7104 91.8179 81.4544C91.806 74.9311 89.1969 68.8966 81.0079 56.4476C75.0123 47.3325 69.7215 42.1478 64.0647 39.8432C59.5588 38.0073 47.9379 38.0337 43.5673 39.8886ZM63.2203 44.3068C68.3465 46.679 73.2162 52.2817 80.5099 64.1987C85.5019 72.3562 86.8909 75.6089 87.2655 80.0112C87.8295 86.6369 85.8938 90.9464 80.7481 94.5253C77.3107 96.9165 76.5756 96.9841 53.9367 96.9841C31.2979 96.9841 30.5627 96.9165 27.1254 94.5253C21.9797 90.9464 20.0439 86.6369 20.608 80.0112C20.9826 75.6089 22.3716 72.3562 27.3636 64.1987C34.562 52.4369 39.4522 46.7634 44.4702 44.3511C49.0075 42.17 58.5541 42.1478 63.2203 44.3068ZM49.1447 55.6415C48.3815 55.7653 47.8713 56.4127 47.7491 57.1762C47.5399 58.4824 47.3286 60.5003 47.2082 62.1453L46.8996 66.3682L41.4865 66.896L37.8792 67.2478C36.8547 67.3477 36.0733 68.209 36.0733 69.2383V73.2303V77.1459C36.0733 78.2069 36.9019 79.0833 37.9613 79.1427L41.7571 79.3556L47.4409 79.6755V84.7852C47.4409 90.3066 48.3265 91.1776 53.9367 91.1776C59.5469 91.1776 60.4325 90.3066 60.4325 84.7852V79.6755L66.1163 79.3556L69.9121 79.1427C70.9715 79.0833 71.8001 78.2069 71.8001 77.1459V73.2303V69.2383C71.8001 68.209 71.0188 67.3477 69.9942 67.2478L66.387 66.896L60.9738 66.3682L60.4325 61.0896L60.1426 57.3429C60.0621 56.3024 59.1952 55.4988 58.1516 55.4972L54.1955 55.4911C51.4255 55.4911 50.0485 55.495 49.1447 55.6415ZM56.3164 65.0485L56.6433 70.591L61.7858 70.913C65.9907 71.1759 66.9283 71.5982 66.9283 73.2303C66.9283 74.8625 65.9907 75.2848 61.7858 75.5477L56.6433 75.8697L56.3131 80.8843C56.0435 84.9847 55.6105 85.899 53.9367 85.899C52.263 85.899 51.8299 84.9847 51.5604 80.8843L51.2302 75.8697L46.0877 75.5477C41.8827 75.2848 40.9452 74.8625 40.9452 73.2303C40.9452 71.5982 41.8827 71.1759 46.0877 70.913L51.2302 70.591L51.5571 65.0485C51.8299 60.4234 52.224 59.506 53.9367 59.506C55.6494 59.506 56.0435 60.4234 56.3164 65.0485Z" fill="white"/>
</svg>
