<svg width="105" height="96" viewBox="0 0 105 96" fill="none" xmlns="http://www.w3.org/2000/svg">
<path fill-rule="evenodd" clip-rule="evenodd" d="M24.2606 0.424143C23.4736 0.76346 17.5985 6.98058 15.724 9.4577C6.65097 21.4472 1.82265 36.9765 0.468279 58.5231C0.32956 60.7317 0.151789 69.3948 0.0736845 77.7745C-0.082524 94.516 -0.121097 94.0115 1.34084 94.396C2.19568 94.6206 3.33274 94.1092 3.46763 93.4393C3.5268 93.1464 3.63054 86.8643 3.69811 79.4794C3.91157 56.1938 4.60014 47.9413 7.22621 37.1906C9.07939 29.6041 11.3063 23.6332 14.1435 18.6441C15.5714 16.1326 15.7851 15.8784 17.0075 15.2339C19.2909 14.0299 21.3597 13.6475 24.8421 13.786C27.2288 13.8809 28.3913 14.0575 30.0679 14.5806C32.6226 15.3774 35.5704 16.7761 37.1071 17.9208C38.3457 18.8431 38.7645 18.9124 39.7794 18.3628C40.537 17.9524 40.8709 17.0968 40.61 16.2352C40.4006 15.5446 38.0225 13.7112 36.1095 12.7655C32.2332 10.8496 26.5611 9.54604 23.0881 9.77317C21.0655 9.90518 20.7651 9.79601 21.4687 9.18413C21.6808 8.99992 22.9745 7.51742 24.3437 5.88985C26.276 3.59344 26.8335 2.76849 26.8335 2.20631C26.8335 0.836493 25.4791 -0.101647 24.2606 0.424143ZM51.8264 4.0846C51.2332 4.70601 51.2126 4.8202 51.3597 6.66762C51.8309 12.5861 54.5562 17.8314 60.3752 24.0189C63.2116 27.0352 73.7933 37.4097 78.4638 41.7533C83.5413 46.4756 90.1265 51.8381 96.4325 56.3863C98.4091 57.8118 100.161 59.1513 100.326 59.3633C100.809 59.9845 100.691 60.8832 99.4544 65.9868C98.1113 71.5323 97.0765 74.5927 95.1048 78.852C92.1124 85.3153 89.2982 88.4377 84.7437 90.3478C79.9727 92.3486 73.5022 92.2286 68.4988 90.0467C64.6762 88.3797 60.558 85.179 57.7405 81.6852C56.9293 80.6791 55.9652 79.4887 55.5986 79.0402C54.757 78.0107 53.6832 77.9336 52.8175 78.8407C51.9596 79.7392 52.0861 80.4022 53.4896 82.3628C59.9464 91.3838 70.1711 96.5966 79.3732 95.5588C88.0914 94.5755 93.7763 90.2949 97.9539 81.5678C100.216 76.8427 101.619 72.7395 103.15 66.3761C104.356 61.3636 104.495 59.4419 103.762 57.9484C103.146 56.6947 102.443 56.0462 99.068 53.6198C90.7868 47.6662 85.2909 42.9474 73.1172 31.3386C65.0478 23.6437 60.3668 18.7533 58.638 16.2117C56.5579 13.1538 55.1044 9.23332 55.1044 6.68167C55.1044 5.09728 54.7194 4.06176 54.003 3.71993C53.0796 3.27922 52.503 3.37585 51.8264 4.0846ZM68.9176 40.5355C68.0522 41.5372 68.3725 42.1179 70.9768 44.2665C72.3273 45.3811 75.4271 48.1313 77.8648 50.3782C83.4085 55.4883 85.6046 57.2027 90.6715 60.3763C92.8879 61.7644 94.7535 62.9548 94.8173 63.0218C94.9728 63.1844 94.0341 66.7909 93.1469 69.4404C90.8007 76.4471 86.952 80.5493 81.219 82.1538C79.2769 82.6971 74.7124 82.7606 72.8336 82.2702C68.9878 81.2666 65.1046 78.5729 62.0267 74.7736C61.0707 73.5938 60.6893 73.4856 59.8865 74.1665C58.9849 74.9312 59.419 75.7841 62.1362 78.5864C64.9985 81.5386 67.3339 83.0957 70.6773 84.2805C72.6333 84.974 73.3743 85.1025 75.9481 85.1956C79.6504 85.3296 82.2025 84.7714 85.4117 83.1263C89.8485 80.852 92.766 77.3777 94.8966 71.8315C95.945 69.1026 97.2385 64.5427 97.4328 62.891C97.5926 61.5335 97.6803 61.6178 93.5575 59.1535C88.5768 56.1762 85.0217 53.4981 80.3804 49.227C73.8537 43.221 70.1059 40.0818 69.4566 40.0775C69.3783 40.077 69.1356 40.2831 68.9176 40.5355ZM34.1408 47.6444C33.8773 47.8065 33.5823 48.062 33.4855 48.2118C33.3887 48.3617 33.3075 50.9123 33.3049 53.8801C33.292 68.3183 31.6374 80.4354 28.122 91.8356C27.4706 93.9483 27.3464 94.637 27.547 95.0297C28.1541 96.2176 29.8743 96.4146 30.6477 95.3849C31.2689 94.5574 32.2816 91.1881 33.6556 85.3773C35.9391 75.7198 36.6488 69.5049 36.8222 57.6447C36.9458 49.2009 36.9293 48.7057 36.505 48.1712C35.9688 47.4958 34.804 47.236 34.1408 47.6444ZM72.3784 51.3495C71.8836 51.6775 72.1824 54.0688 72.9325 55.785C73.6172 57.3518 74.3944 58.4071 75.6067 59.4163C76.5761 60.2234 76.4479 60.4119 74.5106 61.0268C72.6498 61.6176 72.4742 61.7504 72.4742 62.566C72.4742 63.279 72.4962 63.2911 73.7392 63.2565C74.6685 63.2306 75.527 62.9603 76.9736 62.2372C78.6384 61.4055 79.0726 61.2843 79.7815 61.4535C80.2427 61.5636 81.6071 61.6357 82.8134 61.6136C84.9929 61.5739 85.0171 61.5804 86.6712 62.6273C88.4439 63.7494 89.0285 63.7827 89.2697 62.7763C89.4626 61.971 89.379 61.8763 87.2704 60.5123C84.4838 58.7098 82.0297 56.7203 80.9054 55.3525C79.8867 54.1137 79.3898 53.8889 78.8711 54.4322C78.2093 55.1254 78.5702 55.9082 80.4272 57.8101L82.2708 59.6979L81.086 59.5265C77.429 58.9974 74.6335 56.3208 74.1292 52.8656C73.8894 51.222 73.3173 50.7266 72.3784 51.3495ZM90.8272 63.6053C89.4408 66.4611 86.9944 68.6386 83.9989 69.6829C83.1517 69.978 82.3956 70.3914 82.3187 70.6012C82.1514 71.0577 82.512 71.8385 82.9763 72.025C83.462 72.2202 86.2843 71.127 87.4891 70.2767C88.0596 69.8744 88.676 69.4485 88.8591 69.3308C89.0421 69.2131 88.8804 69.7105 88.4997 70.4366C87.4137 72.5073 86.0075 73.8124 83.4196 75.1519C81.2614 76.2689 81.0992 76.4052 81.0992 77.1004C81.0992 78.2471 82.0209 78.2175 84.4361 76.9928C86.6961 75.8468 88.6995 74.0694 89.8521 72.1876C90.8395 70.5759 92.4023 66.7849 92.8735 64.8582C93.3529 62.8973 93.18 62.1622 92.2386 62.1622C91.6145 62.1622 91.4427 62.3376 90.8272 63.6053ZM79.9509 64.5389C79.4511 64.7397 78.7503 65.1169 78.3936 65.3772C77.3856 66.112 76.2359 66.4418 74.1232 66.6022C72.0683 66.758 70.3328 66.3595 69.459 65.531C68.6056 64.7221 67.1296 65.6332 67.7 66.617C67.8864 66.9385 70.2846 68.4295 70.85 68.5758C70.8793 68.5834 70.6991 69.0351 70.4499 69.5797C70.2008 70.1243 69.9253 71.0479 69.8376 71.6322C69.6902 72.615 69.7266 72.7174 70.3256 73.0035C70.904 73.2796 71.0213 73.2502 71.4241 72.729C71.6723 72.4082 71.8752 71.9266 71.8752 71.6591C71.8752 70.9086 72.5163 69.7828 73.2492 69.2457C73.6383 68.9606 74.5298 68.6951 75.4091 68.6022L76.9065 68.4443V70.2855C76.9065 71.7853 76.8054 72.284 76.3617 72.9737C75.2263 74.7388 72.9881 75.6207 70.4174 75.316C69.1825 75.1697 69.0206 75.2061 68.7757 75.6852C67.4472 78.2855 74.5404 77.9299 77.228 75.2613C78.4947 74.0034 78.8881 72.8344 78.8562 70.422C78.8234 67.9579 79.1892 67.1644 80.6526 66.5239C81.5939 66.1118 83.6139 66.0759 84.8944 66.4483C85.6681 66.6732 85.8878 66.6469 86.272 66.2824C86.8554 65.7295 86.8494 65.3654 86.2476 64.7949C85.59 64.1715 81.2992 63.9971 79.9509 64.5389Z" fill="white"/>
</svg>
