<svg width="108" height="98" viewBox="0 0 108 98" fill="none" xmlns="http://www.w3.org/2000/svg">
<path fill-rule="evenodd" clip-rule="evenodd" d="M24.8126 1.07749C7.92042 4.50481 -2.09712 21.7147 1.7781 40.6476C3.2762 47.9661 9.38293 58.049 16.6793 65.2548C24.5106 72.9867 53.351 97.3018 54.6916 97.3018C55.3441 97.3018 63.1959 91.0248 72.1392 83.354C81.0836 75.6822 89.5286 68.5213 90.907 67.4394C94.559 64.5743 103.157 52.6853 105.705 46.9804C107.327 43.3442 107.925 39.6269 107.991 32.7592C108.068 24.6804 107.683 22.6413 105.056 17.2164C99.914 6.59534 90.4756 0.75259 78.4175 0.727429C71.0251 0.712114 65.4382 2.84202 58.1969 8.43316L54.6916 11.1396L51.1863 8.43316C42.5849 1.79074 33.6179 -0.710012 24.8126 1.07749ZM42.0672 7.7768C44.3181 8.93419 48.0251 11.5903 50.3051 13.6786L54.4489 17.4768L59.0791 13.5528C66.3259 7.41252 71.6906 5.06163 78.4196 5.07913C88.6032 5.10648 96.6168 9.98547 101.419 19.0849C103.22 22.498 103.732 25.386 103.747 32.2122C103.769 42.3629 101.027 49.2974 93.488 58.1583C89.0023 63.4301 56.3418 91.8321 54.7649 91.8321C53.1503 91.8321 20.4876 63.557 15.9761 58.2546C8.35615 49.2963 5.61449 42.3924 5.63606 32.2122C5.65116 25.3565 6.16239 22.4903 7.99915 18.981C11.9391 11.4557 17.6327 7.31844 27.1887 5.03866C30.6454 4.21383 37.6408 5.5014 42.0672 7.7768ZM52.0955 39.7681C49.9643 46.6326 48.2203 52.5399 48.2203 52.8954C48.2203 53.252 50.1272 53.5441 52.4568 53.5441H56.6934L54.0747 63.4683C52.6348 68.9271 51.457 73.9724 51.4581 74.6813C51.4592 75.3901 55.2524 69.5704 59.887 61.7487L68.3136 47.5274L64.296 46.9804L60.2785 46.4335L63.8377 36.8615L67.3979 27.2895H61.6838H55.9707L52.0955 39.7681Z" fill="white"/>
</svg>
