<svg width="108" height="101" viewBox="0 0 108 101" fill="none" xmlns="http://www.w3.org/2000/svg">
<path fill-rule="evenodd" clip-rule="evenodd" d="M12.2974 1.54175C11.7174 2.08101 11.5336 2.60873 11.6817 3.3095C12.6041 7.67491 17.1897 32.8785 17.516 35.3742C18.4019 42.1564 17.7446 51.3647 15.9279 57.6251C14.7602 61.6478 14.7542 61.6537 12.8487 60.7498C10.3819 59.5801 9.76981 60.0788 6.68414 65.7754C3.56484 71.5338 0.956757 78.5679 0.254995 83.1161C-0.622506 88.8041 0.855474 96.9871 3.29863 99.9647L4.35788 101.256H51.7882C104.266 101.256 100.328 101.448 103.631 98.7214C107.751 95.3202 109.042 89.2172 106.594 84.7189C102.736 77.6301 87.4003 68.6056 67.3435 61.6221C63.4528 60.2674 62.8247 60.2068 59.8339 60.8983C57.711 61.3895 55.3475 58.3415 53.9019 53.2474C53.5664 52.0651 53.3795 44.2963 53.2654 26.8269C53.1225 4.86586 53.0324 2.00769 52.4676 1.42713C51.6421 0.578981 50.6497 0.596844 49.795 1.47514C49.1617 2.12529 49.1225 4.04451 49.257 27.6192C49.3883 50.6487 49.4696 53.2731 50.1125 55.2943C50.97 57.9898 52.512 60.9463 53.6545 62.0847C54.1161 62.5443 54.3991 63.0084 54.2838 63.1159C53.8299 63.5376 46.3551 65.1033 42.948 65.4899C38.4227 66.0035 34.4824 66.0106 30.4668 65.5123C26.46 65.0154 18.7286 63.2763 18.7286 62.8722C18.7286 62.7017 19.1697 61.1469 19.7094 59.4163C21.251 54.4711 22.0236 48.8493 22.0408 42.4549C22.058 36.0381 21.8166 34.3512 18.0032 14.2078C16.1061 4.18779 15.5064 1.68019 14.9107 1.27529C13.8895 0.581212 13.2618 0.645225 12.2974 1.54175ZM78.2298 1.24924C77.6197 1.66345 77.5196 2.49076 77.4528 7.66895L77.3755 13.6127L70.9704 13.7113C65.524 13.795 64.4904 13.9033 64.0648 14.4337C63.4596 15.1884 63.3627 27.4391 63.9552 28.3129C64.2574 28.7584 65.6501 28.9087 70.8547 29.0572C77.0172 29.2332 77.3787 29.2842 77.4331 29.9876C77.4648 30.397 77.5096 33.0225 77.5332 35.8227C77.5673 39.9164 77.699 41.0277 78.2046 41.4981C78.7278 41.9845 79.9948 42.0827 85.7342 42.0827C90.7974 42.0827 92.8262 41.9528 93.3531 41.5944C93.9864 41.1639 94.0805 40.4017 94.1457 35.1747L94.2202 29.2433L100.61 29.1447C106.041 29.0609 107.074 28.9526 107.5 28.4223C107.854 27.9802 108 25.9437 108 21.428C108 16.9122 107.854 14.8758 107.5 14.4337C107.074 13.9033 106.04 13.795 100.594 13.7113L94.1889 13.6127L94.1369 7.6857C94.0905 2.42823 94.0028 1.70327 93.3599 1.26598C92.3459 0.576749 79.2402 0.562235 78.2298 1.24924ZM89.9856 10.513C89.9856 15.2446 90.0929 16.2695 90.6481 16.8397C91.235 17.4429 92.0108 17.5203 97.4536 17.5203H103.596V21.428V25.3356H97.4199C92.3391 25.3356 91.1321 25.4395 90.6145 25.9203C90.0973 26.4015 89.9856 27.5236 89.9856 32.247V37.989H85.7822H81.5789V32.247C81.5789 27.5236 81.4672 26.4015 80.95 25.9203C80.4323 25.4395 79.2254 25.3356 74.1445 25.3356H67.968V21.428V17.5203H74.1445C79.2254 17.5203 80.4323 17.4165 80.95 16.9357C81.4672 16.4545 81.5789 15.3324 81.5789 10.609V4.86698H85.7822H89.9856V10.513ZM66.2622 65.398C67.751 65.9402 69.1129 66.5011 69.289 66.6447C69.6821 66.9652 65.2266 69.1691 61.1413 70.6748C51.954 74.0611 46.7754 74.9855 36.9431 74.9948C29.0368 75.0019 25.8078 74.6242 19.1513 72.9137C15.5076 71.9774 10.0052 70.0496 9.71016 69.6056C9.514 69.3101 11.7378 64.7843 12.0793 64.7843C12.1589 64.7843 13.2114 65.1904 14.4183 65.6864C25.0576 70.0608 39.1097 70.9752 51.1237 68.0753C54.2146 67.3295 58.2418 66.0515 60.7622 65.0165C62.6745 64.2313 63.1505 64.2644 66.2622 65.398ZM82.7798 72.252C92.6657 76.9189 100.115 82.0405 102.397 85.7398C104.524 89.1878 103.805 93.375 100.641 95.9574L99.1613 97.165L52.6397 97.0705L6.11849 96.9759L5.34187 94.9291C4.1305 91.7371 4.18134 82.7413 5.43234 78.9263C6.23458 76.4805 7.51361 73.3439 7.70896 73.3439C7.74619 73.3439 9.68855 74.0138 12.0252 74.8326C17.1233 76.6186 22.8963 77.9602 28.1065 78.5698C33.7078 79.2252 45.0544 78.8403 50.1537 77.8221C57.6937 76.3164 66.9536 72.9666 72.5292 69.727C74.8435 68.3823 74.2966 68.2476 82.7798 72.252Z" fill="white"/>
</svg>
