<svg width="23" height="23" viewBox="0 0 23 23" fill="none" xmlns="http://www.w3.org/2000/svg">
<path fill-rule="evenodd" clip-rule="evenodd" d="M5.95061 0.0557676C4.45805 0.247212 3.17999 0.874436 2.0742 1.95825C0.90086 3.10825 0.258654 4.39738 0.0592251 6.00298C-0.0182119 6.62633 -0.0204078 16.3768 0.0567402 16.9871C0.253395 18.5428 0.860697 19.7964 1.96319 20.9228C3.09597 22.0802 4.42014 22.7435 5.97951 22.9346C6.67141 23.0194 16.3036 23.0228 16.9898 22.9385C18.5352 22.7485 19.871 22.0944 20.9834 20.9828C22.0848 19.8821 22.7484 18.5328 22.9342 17.016C23.0219 16.3001 23.0219 6.69147 22.9342 5.97558C22.7484 4.45876 22.0848 3.10952 20.9834 2.00883C19.8641 0.890274 18.552 0.247906 16.9898 0.0538023C16.403 -0.0191455 6.52076 -0.0173536 5.95061 0.0557676ZM17.0461 1.11785C17.9181 1.25097 18.6114 1.516 19.3576 2.00154C20.7102 2.88166 21.6248 4.31582 21.8737 5.94668C21.9969 6.75489 21.9969 16.2367 21.8737 17.0449C21.4898 19.561 19.5615 21.4898 17.0461 21.8738C16.2381 21.997 6.75862 21.997 5.95061 21.8738C3.43519 21.4898 1.50683 19.561 1.123 17.0449C0.999737 16.2367 0.999737 6.75489 1.123 5.94668C1.40536 4.09593 2.50612 2.54975 4.13449 1.71657C4.7641 1.39444 5.30575 1.21247 5.91941 1.11709C6.64836 1.00374 16.3028 1.00444 17.0461 1.11785ZM17.6528 4.18333C17.6211 4.19385 17.5255 4.21772 17.4406 4.23639C17.2394 4.28061 16.9506 4.52622 16.8335 4.75281C16.7224 4.96761 16.7117 5.46292 16.8139 5.66049C17.0147 6.04893 17.3427 6.25223 17.7684 6.25223C18.3753 6.25223 18.7962 5.83113 18.7962 5.22414C18.7962 4.67605 18.4577 4.28212 17.9129 4.1961C17.8016 4.17853 17.6846 4.17281 17.6528 4.18333ZM10.3426 5.85974C9.22013 6.11032 8.25419 6.63951 7.44873 7.44517C6.73388 8.1602 6.22927 9.02211 5.93969 10.0229C5.82284 10.4266 5.80614 10.6106 5.80614 11.4958C5.80614 12.381 5.82284 12.565 5.93969 12.9687C6.22927 13.9695 6.73388 14.8314 7.44873 15.5464C8.16404 16.2619 9.02711 16.7673 10.0258 17.0554C10.4287 17.1716 10.6149 17.1884 11.4983 17.1884C12.3818 17.1884 12.5679 17.1716 12.9709 17.0554C13.9696 16.7673 14.8326 16.2619 15.5479 15.5464C16.0623 15.032 16.3969 14.5541 16.7085 13.889C17.1048 13.0432 17.1831 12.6508 17.1865 11.4958C17.1892 10.6066 17.1735 10.4285 17.0565 10.0229C16.7685 9.02395 16.2632 8.16066 15.5479 7.44517C14.8412 6.73829 13.9775 6.22916 13.0008 5.9439C12.4338 5.77824 10.922 5.73038 10.3426 5.85974ZM12.5963 6.93205C15.7769 7.69309 17.2162 11.4356 15.3727 14.1511C13.6209 16.7314 9.77715 16.8748 7.8317 14.4324C5.96679 12.0912 6.75665 8.57517 9.43915 7.27662C10.3931 6.81483 11.5696 6.68645 12.5963 6.93205Z" fill="white"/>
</svg>
