<svg width="187" height="58" viewBox="0 0 187 58" fill="none" xmlns="http://www.w3.org/2000/svg">
<path fill-rule="evenodd" clip-rule="evenodd" d="M4.59834 0.363877C3.56312 2.01217 -0.00594208 8.35197 7.42937e-06 8.5319C0.00418817 8.65753 1.0788 10.6037 2.38817 12.8568L4.76878 16.9534H9.71491H14.6612L17.055 12.8041C18.3718 10.5221 19.4459 8.57014 19.442 8.46652C19.4382 8.3629 18.3616 6.43475 17.0494 4.18161L14.6636 0.0849848L9.7453 0.0425727L4.82683 0L4.59834 0.363877ZM16.8267 4.39544C18.0921 6.58946 19.1274 8.44017 19.1274 8.50813C19.1274 8.57624 18.0862 10.4319 16.8138 12.6321L14.5001 16.6321H9.70784H4.91543L2.61474 12.643C1.34942 10.449 0.314045 8.58427 0.314045 8.49913C0.314045 8.34699 4.54736 0.921339 4.86027 0.524368C4.98441 0.36709 6.09214 0.330782 9.77328 0.363716L14.5261 0.406289L16.8267 4.39544ZM8.69272 2.35612C8.03072 2.95214 7.89452 3.74528 8.33382 4.4462C9.03265 5.56129 10.6821 5.44835 11.1828 4.25101C11.6421 3.15279 11.0445 2.14294 9.83969 1.98148C9.30005 1.90919 9.12607 1.96606 8.69272 2.35612ZM7.37016 6.41178C6.7572 7.02418 6.74595 7.05712 6.74595 8.22715C6.74595 9.45774 6.89436 9.80443 7.4213 9.80443C7.67729 9.80443 7.71073 9.64683 7.71073 8.43888C7.71073 7.60703 7.77553 7.07334 7.87684 7.07334C7.9857 7.07334 8.03522 8.09589 8.02091 10.0491C8.00531 12.1899 8.05452 13.0915 8.19618 13.2621C8.47179 13.594 10.9648 13.5997 11.2394 13.269C11.3734 13.1078 11.4266 12.1443 11.4166 10.056C11.4076 8.12658 11.4605 7.07334 11.5667 7.07334C11.6652 7.07334 11.7307 7.61779 11.7307 8.43888C11.7307 9.66771 11.7609 9.80443 12.0326 9.80443C12.5845 9.80443 12.7347 9.40312 12.6691 8.10409C12.6098 6.93036 12.5831 6.85871 12.0105 6.33451L11.4137 5.78813H9.70414H7.99454L7.37016 6.41178ZM66.241 20.6716V32.8238L68.2912 32.7317C71.6241 32.582 73.6498 31.8362 75.3296 30.1406C77.018 28.4364 77.8185 26.4427 77.8185 23.9418C77.8185 19.3872 75.0064 16.5304 69.9796 15.9781L68.9746 15.8678V12.1935V8.51921H67.6078H66.241V20.6716ZM183.784 12.1946V15.8702L182.588 16.0478C181.243 16.2477 179.63 16.8084 178.699 17.3999C177.734 18.0126 176.312 19.6032 175.786 20.6581C175.121 21.9902 174.911 22.9774 174.916 24.7451C174.926 28.6903 177.003 31.3114 180.97 32.3834C181.524 32.533 182.895 32.6814 184.186 32.7317L186.437 32.8193V20.6692V8.51921H185.111H183.784V12.1946ZM21.1602 10.1659C20.1169 11.8362 16.5406 18.1925 16.5821 18.3024C16.6112 18.3795 17.6842 20.2589 18.9666 22.4789L21.2981 26.5151L26.1931 26.4735L31.0881 26.4319L33.4555 22.338C34.7577 20.0865 35.8038 18.2068 35.7804 18.1611C35.7569 18.1154 34.6672 16.2164 33.3586 13.9412L30.9794 9.80443H26.1827H21.3859L21.1602 10.1659ZM39.8702 21.6123V32.617H45.3374H50.8045V31.6531V30.6892H46.7041H42.6038V20.6484V10.6077H41.237H39.8702V21.6123ZM81.9992 21.5691V32.5768L82.5017 32.6772C82.7781 32.7325 83.5782 32.7777 84.2798 32.7777C91.3787 32.7777 96.1717 28.2858 96.1438 21.6593C96.1298 18.3224 95.1875 15.8713 93.1307 13.821C90.9662 11.6637 88.6188 10.8066 84.4514 10.6523L81.9992 10.5616V21.5691ZM141.609 10.7656C141.097 10.8328 140.651 10.9152 140.619 10.9486C140.586 10.982 140.114 14.0456 139.57 17.7567C138.6 24.3703 137.558 31.1621 137.385 31.9908C137.299 32.4069 137.305 32.4093 138.548 32.5033C139.236 32.5551 139.817 32.5789 139.84 32.5558C139.902 32.4939 140.573 27.8111 141.408 21.6123C141.813 18.6082 142.186 15.9694 142.236 15.7485C142.335 15.3159 143.302 17.8359 146.103 25.8282L147.524 29.8833L148.757 29.8846L149.99 29.8859L150.827 27.3556C151.835 24.3068 154.825 16.2115 155.022 15.9976C155.106 15.906 155.163 15.9701 155.164 16.1582C155.167 16.6615 157.227 32.4843 157.298 32.5558C157.355 32.612 159.86 32.313 159.933 32.2414C159.948 32.2268 159.54 29.251 159.027 25.6285C158.514 22.0058 157.854 17.2519 157.561 15.0642C157.268 12.8764 156.988 11.0225 156.939 10.9444C156.891 10.8663 156.285 10.7767 155.594 10.7452L154.338 10.688L151.681 18.1583C150.22 22.267 148.969 25.6863 148.902 25.7567C148.79 25.8733 147.838 23.3329 144.489 13.9814C143.163 10.2814 143.388 10.5317 141.609 10.7656ZM7.1108 12.1649C7.26725 12.2057 7.48433 12.203 7.59319 12.1589C7.70205 12.1149 7.57405 12.0817 7.30874 12.0849C7.04342 12.0881 6.95434 12.1241 7.1108 12.1649ZM11.9347 12.1649C12.0912 12.2057 12.3083 12.203 12.4171 12.1589C12.526 12.1149 12.398 12.0817 12.1327 12.0849C11.8673 12.0881 11.7783 12.1241 11.9347 12.1649ZM128.63 13.9814V15.9092H127.505H126.379V16.7928V17.6764H127.528H128.677L128.567 22.2951C128.41 28.869 128.664 30.2883 130.205 31.447C131.103 32.1222 132.239 32.4618 133.966 32.5715L135.361 32.6602L135.462 32.0362C135.518 31.6929 135.597 31.2495 135.638 31.0506C135.707 30.7117 135.658 30.6892 134.854 30.6892C133.044 30.6892 131.795 30.0009 131.386 28.7776C131.264 28.4142 131.203 26.4661 131.203 22.9539V17.6764H133.374H135.545V16.7928V15.9092H133.374H131.203V13.9814V12.0536H129.917H128.63V13.9814ZM6.39428 12.3239C6.51022 12.3704 6.64899 12.3646 6.70237 12.3112C6.75576 12.2579 6.66088 12.22 6.4914 12.2269C6.30408 12.2346 6.26597 12.2727 6.39428 12.3239ZM12.8262 12.3239C12.9421 12.3704 13.0809 12.3646 13.1343 12.3112C13.1877 12.2579 13.0928 12.22 12.9233 12.2269C12.736 12.2346 12.6979 12.2727 12.8262 12.3239ZM4.95482 12.8663L4.57518 13.1972L5.05757 12.915C5.6924 12.5435 5.70189 12.5355 5.50411 12.5355C5.41084 12.5355 5.16354 12.6844 4.95482 12.8663ZM14.1719 12.8113C14.4091 12.9583 14.6755 13.2276 14.764 13.4095C14.8526 13.5915 14.9297 13.6467 14.9357 13.5324C14.9497 13.2657 14.2224 12.5342 13.9489 12.5398C13.8344 12.5421 13.9347 12.6644 14.1719 12.8113ZM88.1663 13.0719C90.5451 13.9346 92.3653 16.0944 93.0076 18.8167C93.3222 20.1501 93.3251 23.2232 93.0129 24.5458C92.5158 26.6523 91.0725 28.7599 89.4689 29.7211C88.3928 30.3661 86.7895 30.8273 85.577 30.8405L84.7328 30.8498V21.6691V12.4884L85.9219 12.5888C86.5758 12.6439 87.5858 12.8615 88.1663 13.0719ZM4.50491 13.5147C4.49944 13.6556 4.62406 13.8879 4.78213 14.0307C5.1436 14.3576 6.16161 14.788 6.5398 14.7739C6.69739 14.7679 6.53691 14.6722 6.18316 14.561C5.2322 14.262 4.81509 14.0019 4.6567 13.6095C4.56183 13.3741 4.51183 13.3428 4.50491 13.5147ZM27.3555 13.7653C27.5958 13.9823 27.6496 14.277 27.6496 15.3718V16.7125H28.9002C30.6263 16.7125 30.8656 16.8954 30.8656 18.2157C30.8656 18.7815 30.7815 19.3027 30.6726 19.4114C30.5517 19.5322 29.9508 19.6042 29.0646 19.6042H27.6496V20.9339C27.6496 22.7273 27.4726 22.9779 26.2049 22.9779C24.8752 22.9779 24.7553 22.8174 24.7553 21.0387V19.6042H23.3195C21.5691 19.6042 21.3785 19.472 21.3785 18.2579C21.3785 16.9523 21.5665 16.8031 23.2951 16.7367L24.7553 16.6805V15.2828C24.7553 14.4098 24.8278 13.8125 24.9482 13.6922C25.2478 13.3929 27.0026 13.4462 27.3555 13.7653ZM14.223 14.153C13.9577 14.3228 13.8231 14.462 13.9238 14.4625C14.0246 14.463 14.2779 14.3212 14.4866 14.1473C14.9646 13.7494 14.8497 13.752 14.223 14.153ZM12.8262 14.7337C12.9421 14.7801 13.0809 14.7744 13.1343 14.721C13.1877 14.6677 13.0928 14.6298 12.9233 14.6367C12.736 14.6444 12.6979 14.6825 12.8262 14.7337ZM7.02734 14.891C7.13797 14.9356 7.31887 14.9356 7.42934 14.891C7.53997 14.8465 7.44944 14.81 7.22834 14.81C7.00724 14.81 6.91687 14.8465 7.02734 14.891ZM12.0121 14.891C12.1227 14.9356 12.3036 14.9356 12.4141 14.891C12.5247 14.8465 12.4342 14.81 12.2131 14.81C11.992 14.81 11.9016 14.8465 12.0121 14.891ZM8.80239 15.0643C9.35859 15.0958 10.2269 15.0957 10.732 15.0638C11.237 15.032 10.782 15.0063 9.7207 15.0067C8.65944 15.007 8.24619 15.033 8.80239 15.0643ZM103.466 15.7293C101.409 16.2716 99.5763 18.4933 99.0502 21.0804C98.7784 22.4164 98.8162 25.4404 99.119 26.5926C100.161 30.5587 103.041 32.6051 107.594 32.6143L108.988 32.617L109.081 32.135C109.132 31.87 109.214 31.4457 109.263 31.1922L109.351 30.7311L107.614 30.6516C104.944 30.5295 103.327 29.7349 102.346 28.063C101.866 27.2451 101.461 25.6034 101.458 24.4639L101.456 23.6205H105.741H110.027L109.925 22.0541C109.653 17.8762 108.063 15.777 105.074 15.6499C104.455 15.6236 103.731 15.6592 103.466 15.7293ZM119.061 15.7677C118.706 15.8477 117.783 16.2223 117.011 16.6003L115.606 17.2874V16.5982V15.9092H114.239H112.872V24.2631V32.617H114.239H115.606V25.8865V19.1561L117.013 18.4592C118.213 17.8648 118.567 17.762 119.42 17.7596C120.658 17.7561 120.998 18.0386 121.231 19.2659C121.324 19.7603 121.395 22.8012 121.395 26.3734V32.617H122.681H123.967V25.5769C123.967 17.7668 123.943 17.5544 122.936 16.5181C122.105 15.6631 120.718 15.3945 119.061 15.7677ZM166.659 15.7293C164.603 16.2716 162.77 18.4933 162.244 21.0804C161.972 22.4164 162.01 25.4404 162.312 26.5926C163.355 30.5587 166.235 32.6051 170.787 32.6143L172.181 32.617L172.274 32.135C172.325 31.87 172.407 31.4457 172.456 31.1922L172.545 30.7311L170.808 30.6516C168.137 30.5295 166.52 29.7349 165.539 28.063C165.06 27.2451 164.655 25.6034 164.652 24.4639L164.649 23.6205H168.935H173.22L173.118 22.0541C172.846 17.8762 171.256 15.777 168.267 15.6499C167.648 15.6236 166.924 15.6592 166.659 15.7293ZM53.5363 16.11C53.5353 16.3087 53.4916 16.7313 53.439 17.0487L53.3433 17.6261L55.0714 17.7238C58.013 17.8902 59.2094 18.7947 59.476 21.0531L59.5888 22.0106L59.0156 22.107C56.5885 22.5152 54.4488 23.4312 53.2997 24.5539C52.2613 25.5687 51.9376 26.319 51.9352 27.7171C51.9307 30.2554 53.5231 31.8669 56.7001 32.5394C57.8263 32.7778 60.5409 32.8524 61.6181 32.6745L62.2211 32.5749L62.2161 27.3346C62.2108 21.6715 62.0962 20.2009 61.5641 18.9651C60.6805 16.9131 58.3015 15.758 54.945 15.7513C53.5929 15.7487 53.538 15.7627 53.5363 16.11ZM105.636 17.7565C106.537 18.2221 107.114 19.3015 107.388 21.0338L107.518 21.8533H104.474H101.43L101.537 21.3312C102.053 18.7969 103.077 17.5405 104.639 17.522C104.931 17.5186 105.38 17.6242 105.636 17.7565ZM168.83 17.7565C169.73 18.2221 170.308 19.3015 170.582 21.0338L170.711 21.8533H167.667H164.624L164.73 21.3312C165.247 18.7969 166.27 17.5405 167.833 17.522C168.125 17.5186 168.573 17.6242 168.83 17.7565ZM70.8238 18.0549C71.9236 18.3477 72.5819 18.7105 73.4293 19.4909C74.8362 20.7864 75.4023 22.765 75.088 25.2881C74.7035 28.3758 72.7631 30.3891 69.7923 30.7828L68.9746 30.8913V24.3641V17.837L69.4972 17.8389C69.7847 17.8399 70.3816 17.9371 70.8238 18.0549ZM183.784 24.3662V30.8956L182.779 30.7934C181.443 30.6577 179.654 29.7821 178.89 28.89C176.968 26.6465 177.128 22.079 179.21 19.7769C179.544 19.4071 180.115 18.9304 180.478 18.7177C181.19 18.3011 182.626 17.8647 183.342 17.8476L183.784 17.837V24.3662ZM2.45812 23.7318C1.14617 26.002 0.0924661 27.9226 0.116586 27.9997C0.140705 28.0768 1.22384 29.9786 2.52389 32.226L4.88729 36.312L9.71604 36.3114L14.5446 36.3107L16.8762 32.2722C18.1586 30.0511 19.2314 28.1343 19.2602 28.013C19.2891 27.8916 18.2512 25.9499 16.9535 23.6982L14.5943 19.6042H9.71877H4.84323L2.45812 23.7318ZM13.4673 23.9739C13.7405 24.2469 13.7405 30.8661 13.4673 31.139C13.3435 31.2627 12.7098 31.3318 11.6985 31.3318H10.1227V31.8941V32.4563H11.3287C12.0254 32.4563 12.5347 32.5241 12.5347 32.617C12.5347 32.7181 11.4895 32.7777 9.7207 32.7777C7.95193 32.7777 6.90674 32.7181 6.90674 32.617C6.90674 32.5241 7.41599 32.4563 8.11273 32.4563H9.31871V31.8941V31.3318H7.80432C6.97139 31.3318 6.17544 31.2879 6.03554 31.2343C5.81445 31.1494 5.78116 30.6815 5.78116 27.6517C5.78116 25.1554 5.83583 24.1121 5.97412 23.9739C6.24764 23.7007 13.1938 23.7007 13.4673 23.9739ZM59.6483 27.4188V31.0564L58.364 30.9684C56.2359 30.8227 55.0889 30.0448 54.667 28.4609C54.3105 27.1227 55.0666 25.4519 56.3263 24.7944C56.9458 24.471 58.9791 23.7982 59.3669 23.7884C59.6268 23.7816 59.6483 24.0588 59.6483 27.4188ZM6.21001 24.2096C6.151 24.2684 6.10276 25.0636 6.10276 25.9768V27.6368H7.03313C7.93504 27.6368 7.97926 27.6162 8.47774 26.9683L8.99197 26.2998L9.2248 26.8568C9.3528 27.163 9.50684 27.6092 9.56682 27.848C9.71877 28.4527 9.88375 28.5029 10.1893 28.037C10.4367 27.6596 10.5342 27.6368 11.8952 27.6368H13.3386V26.0624C13.3386 25.0521 13.2695 24.4189 13.1457 24.2952C12.937 24.0867 6.41358 24.0062 6.21001 24.2096ZM8.45973 27.3441C8.07976 27.8291 8.01094 27.8525 7.07542 27.8143L6.09086 27.7743L6.13701 29.3522L6.18316 30.9302H9.7207H13.2582V29.404V27.8778L11.9373 27.8312L10.6165 27.7846L10.2489 28.3514C10.0468 28.663 9.8331 28.919 9.77409 28.9201C9.71491 28.921 9.51006 28.4521 9.31871 27.8778C9.12736 27.3034 8.94582 26.8335 8.91527 26.8335C8.88472 26.8335 8.6797 27.0633 8.45973 27.3441ZM20.4485 30.649C17.4629 35.7099 16.8519 36.8015 16.9088 36.9721C16.9428 37.0736 18.0249 35.358 19.3137 33.1598L21.657 29.163L26.3417 29.1204C29.2809 29.0937 31.0264 29.0189 31.0264 28.9196C31.0264 28.8193 29.2935 28.7614 26.2943 28.7614H21.5622L20.4485 30.649ZM63.4271 47.1398C61.2389 47.8312 60.2221 49.2658 60.2277 51.6543C60.2311 53.0988 60.4589 53.7747 61.2433 54.6673C62.0836 55.6235 63.032 55.9901 64.6331 55.9776C65.3848 55.9718 66.1973 55.8845 66.4388 55.7838C66.8095 55.6291 66.8561 55.5436 66.7389 55.2339C66.6427 54.9802 66.5076 54.892 66.2999 54.9476C66.1349 54.9918 65.421 55.0279 64.7135 55.0279C63.2364 55.0279 62.4829 54.6858 61.9059 53.7532C60.6623 51.7428 61.434 48.8719 63.4218 48.1133C64.0791 47.8625 65.6189 47.8322 66.3837 48.055C66.5176 48.094 66.6553 47.9477 66.7289 47.6879C66.8461 47.2739 66.818 47.2487 66.0558 47.0855C65.0389 46.8675 64.2361 46.8842 63.4271 47.1398ZM77.5263 47.2114C75.7543 47.8417 74.8596 49.3039 74.8569 51.5739C74.8556 52.6167 74.9342 53.113 75.1894 53.6736C75.9767 55.4032 77.6483 56.2801 79.5022 55.9356C80.7493 55.7038 81.5933 55.1007 82.2137 53.998C83.1605 52.315 82.9616 49.5831 81.7956 48.2565C80.7641 47.0827 79.0606 46.6657 77.5263 47.2114ZM96.018 47.2114C94.246 47.8417 93.3513 49.3039 93.3486 51.5739C93.3473 52.6167 93.426 53.113 93.6812 53.6736C94.4684 55.4032 96.1401 56.2801 97.9939 55.9356C99.241 55.7038 100.085 55.1007 100.705 53.998C101.652 52.315 101.453 49.5831 100.287 48.2565C99.2558 47.0827 97.5523 46.6657 96.018 47.2114ZM112.098 47.2114C110.326 47.8417 109.431 49.3039 109.428 51.5739C109.427 52.6167 109.506 53.113 109.761 53.6736C110.548 55.4032 112.22 56.2801 114.074 55.9356C115.321 55.7038 116.165 55.1007 116.785 53.998C117.732 52.315 117.533 49.5831 116.367 48.2565C115.336 47.0827 113.632 46.6657 112.098 47.2114ZM142.649 47.2114C140.877 47.8417 139.983 49.3039 139.98 51.5739C139.979 52.6167 140.057 53.113 140.312 53.6736C141.1 55.4032 142.771 56.2801 144.625 55.9356C145.872 55.7038 146.716 55.1007 147.337 53.998C148.283 52.315 148.085 49.5831 146.919 48.2565C145.887 47.0827 144.184 46.6657 142.649 47.2114ZM0.796438 47.159C0.796438 47.4538 0.306005 54.2361 0.23027 54.9878L0.137329 55.9115H0.683879H1.23043L1.33205 54.3452C1.38785 53.4836 1.48224 51.7489 1.54173 50.49L1.64995 48.2014L2.92299 52.066C4.16675 55.8413 4.20567 55.9295 4.6075 55.881C5.05002 55.8275 5.21403 55.4426 6.98586 50.3033L7.67327 48.3098L7.76717 49.2591C7.81879 49.7812 7.90305 51.2928 7.95434 52.6182C8.07783 55.8097 8.1005 55.9115 8.68822 55.9115C9.25728 55.9115 9.24699 56.121 8.91671 51.2526C8.78775 49.3529 8.68082 47.636 8.67889 47.4371C8.67584 47.1176 8.59351 47.0757 7.96913 47.0757C7.44606 47.0757 7.23381 47.1486 7.15116 47.3568C6.71443 48.4579 5.80592 50.9869 5.29025 52.5374C4.95241 53.5532 4.64079 54.2761 4.59801 54.1439C4.55508 54.0117 4.35955 53.3973 4.16338 52.7788C3.9672 52.1603 3.44719 50.624 3.00773 49.365L2.20856 47.0757H1.5025C1.11417 47.0757 0.796438 47.1133 0.796438 47.159ZM10.9267 51.4936V55.9115H13.419H15.9114V55.4296V54.9476H13.9818H12.0523V53.3411V51.7346H13.821H15.5898V51.2526V50.7707H13.821H12.0523V49.4051V48.0396H13.9014H15.7506V47.5576V47.0757H13.3386H10.9267V51.4936ZM18.803 49.124C18.8014 50.2595 18.6995 51.647 18.5742 52.2376C18.2735 53.6545 17.6155 54.9476 17.1951 54.9476C16.8995 54.9476 16.8762 55.0591 16.8762 56.4738V58H17.3586H17.841V56.9558V55.9115H20.7353H23.6297V56.9558V58H24.1121H24.5945V56.4738C24.5945 54.9529 24.593 54.9476 24.1925 54.9476H23.7905V51.0116V47.0757H21.2981H18.8058L18.803 49.124ZM26.0417 51.4936V55.9115H26.663H27.2845L28.9402 53.3033C29.8508 51.8689 30.8661 50.1976 31.1963 49.5896L31.7969 48.4838L31.7093 52.1977L31.6216 55.9115H32.2084H32.7952V51.484V47.0562L32.2086 47.1062C31.6411 47.1544 31.5705 47.2368 30.0331 49.6461C29.1592 51.0157 28.1518 52.6603 27.7943 53.3009C27.4371 53.9416 27.1317 54.4657 27.1158 54.4657C27.0999 54.4658 27.1118 52.8031 27.1423 50.7707L27.1978 47.0757H26.6197H26.0417V51.4936ZM34.7247 51.4936V55.9115H37.8603H40.9958V56.9558V58H41.4782H41.9606V56.4738C41.9606 54.9529 41.9592 54.9476 41.5586 54.9476H41.1566V51.0116V47.0757H40.5938H40.031V51.0116V54.9476H37.9407H35.8503V51.0116V47.0757H35.2875H34.7247V51.4936ZM43.4078 51.4936V55.9115H44.0291H44.6506L46.3063 53.3033C47.2169 51.8689 48.2322 50.1976 48.5625 49.5896L49.1631 48.4838L49.0754 52.1977L48.9878 55.9115H49.5745H50.1613V51.484V47.0562L49.5747 47.1062C49.0072 47.1544 48.9366 47.2368 47.3993 49.6461C46.5253 51.0157 45.5179 52.6603 45.1605 53.3009C44.8032 53.9416 44.4978 54.4657 44.4819 54.4657C44.466 54.4658 44.4779 52.8031 44.5084 50.7707L44.5639 47.0757H43.9859H43.4078V51.4936ZM52.0909 51.4936V55.9115H52.6536H53.2164V53.8231V51.7346H55.3872H57.558V53.8231V55.9115H58.1208H58.6836V51.4936V47.0757H58.1208H57.558V48.9232V50.7707H55.3872H53.2164V48.9232V47.0757H52.6536H52.0909V51.4936ZM68.3314 51.4936V55.9115H68.8942H69.457V53.8231C69.457 51.5005 69.4166 51.5689 70.5917 51.8951C71.4464 52.1324 71.9641 52.7909 72.5538 54.3905L73.0849 55.8312L73.7043 55.8823C74.2484 55.9273 74.3095 55.8979 74.2065 55.6413C74.142 55.4807 73.8442 54.714 73.5448 53.9376C72.8599 52.1613 72.6151 51.8258 71.6676 51.366L70.9035 50.9953L72.5118 49.1C73.3964 48.0577 74.1201 47.1758 74.1201 47.1403C74.1201 47.1048 73.8444 47.0757 73.5073 47.0757C72.9157 47.0757 72.8423 47.1422 71.3798 49.0035C70.5469 50.0638 69.7734 50.9313 69.661 50.9313C69.5075 50.9313 69.457 50.4543 69.457 49.0035V47.0757H68.8942H68.3314V51.4936ZM84.4112 51.4936V55.9115H86.9035H89.3959V55.4296V54.9476H87.4663H85.5368V53.3411V51.7346H87.3055H89.0743V51.2526V50.7707H87.3055H85.5368V49.4051V48.0396H87.3859H89.2351V47.5576V47.0757H86.8231H84.4112V51.4936ZM102.742 51.406V55.7363L103.325 55.8455C104.293 56.0269 106.088 55.8013 106.894 55.3971C107.899 54.893 108.256 54.3527 108.329 53.2227C108.447 51.4253 107.373 50.4712 105.068 50.3234L103.868 50.2465V49.1429V48.0396H105.797H107.727V47.5576V47.0757H105.234H102.742V51.406ZM119.505 47.1828L118.983 47.2567V51.584V55.9115H119.545H120.108L120.11 54.1042L120.111 52.2969L121.213 52.2811C122.056 52.2691 122.476 52.1749 123.006 51.8795C124.044 51.3003 124.369 50.7673 124.369 49.6461C124.369 48.5297 124.028 47.9586 123.081 47.489C122.453 47.1777 120.639 47.0223 119.505 47.1828ZM126.471 50.1502C128.178 53.5573 128.194 53.6484 127.27 54.5715C126.892 54.9492 126.585 55.1083 126.235 55.1083C125.808 55.1083 125.736 55.1672 125.736 55.5149C125.736 55.7387 125.85 55.9653 125.989 56.0187C126.334 56.1511 127.369 55.8238 127.883 55.4196C128.395 55.0173 129.406 52.9915 130.785 49.6059L131.816 47.0757L131.228 47.0763L130.64 47.077L129.689 49.7319C129.165 51.1922 128.684 52.3304 128.619 52.2615C128.555 52.1926 128.285 51.6302 128.02 51.0116C127.755 50.3931 127.241 49.2546 126.879 48.4814L126.221 47.0757H125.576H124.931L126.471 50.1502ZM133.291 49.124C133.289 50.2595 133.187 51.647 133.062 52.2376C132.761 53.6545 132.103 54.9476 131.683 54.9476C131.387 54.9476 131.364 55.0591 131.364 56.4738V58H131.846H132.329V56.9558V55.9115H135.223H138.118V56.9558V58H138.6H139.082V56.4738C139.082 54.9529 139.081 54.9476 138.68 54.9476H138.278V51.0116V47.0757H135.786H133.294L133.291 49.124ZM149.896 47.1918L149.373 47.2567V51.4965V55.7363L149.957 55.8457C150.88 56.0187 152.897 55.7862 153.656 55.4193C155.314 54.6172 155.405 52.2283 153.806 51.4664L153.27 51.211L153.997 50.5157C154.694 49.8487 154.72 49.7902 154.64 49.0806C154.587 48.6158 154.418 48.1943 154.185 47.9464C153.52 47.2392 151.864 46.948 149.896 47.1918ZM158.132 49.7584C157.62 51.243 156.929 53.2386 156.597 54.1934L155.994 55.9292L156.571 55.8802C157.143 55.8315 157.15 55.8217 157.615 54.4255L158.083 53.0198H159.665H161.246L161.763 54.4657C162.276 55.8972 162.287 55.9115 162.822 55.9115C163.119 55.9115 163.358 55.8574 163.353 55.791C163.347 55.7247 162.677 53.7548 161.862 51.4133L160.381 47.156L159.723 47.1076L159.064 47.0593L158.132 49.7584ZM164.649 51.4936V55.9115H165.212H165.775V53.8231V51.7346H167.945H170.116V53.8231V55.9115H170.679H171.242V51.4936V47.0757H170.679H170.116V48.9232V50.7707H167.945H165.775V48.9232V47.0757H165.212H164.649V51.4936ZM173.332 51.4936V55.9115H173.954H174.575L176.231 53.3033C177.141 51.8689 178.157 50.1976 178.487 49.5896L179.087 48.4838L179 52.1977L178.912 55.9115H179.499H180.086V51.484V47.0562L179.499 47.1062C178.932 47.1544 178.861 47.2368 177.324 49.6461C176.45 51.0157 175.442 52.6603 175.085 53.3009C174.728 53.9416 174.422 54.4657 174.406 54.4657C174.39 54.4658 174.402 52.8031 174.433 50.7707L174.488 47.0757H173.91H173.332V51.4936ZM182.015 51.4936V55.9115H184.508H187V55.4296V54.9476H185.07H183.141V53.3411V51.7346H184.91H186.678V51.2526V50.7707H184.91H183.141V49.4051V48.0396H184.99H186.839V47.5576V47.0757H184.427H182.015V51.4936ZM80.2468 48.2467C80.5474 48.4488 80.9741 48.9368 81.1952 49.3311C81.5411 49.9476 81.5972 50.2495 81.5972 51.4936C81.5972 52.7377 81.5411 53.0396 81.1952 53.6561C80.6438 54.6392 79.9064 55.1083 78.9122 55.1083C77.7027 55.1083 76.9103 54.5755 76.2853 53.3419C75.9352 52.6513 75.8841 50.7944 76.1909 49.9134C76.4346 49.2133 77.2373 48.232 77.7292 48.033C78.4165 47.7549 79.6749 47.8617 80.2468 48.2467ZM98.7385 48.2467C99.0391 48.4488 99.4658 48.9368 99.6869 49.3311C100.033 49.9476 100.089 50.2495 100.089 51.4936C100.089 52.7377 100.033 53.0396 99.6869 53.6561C99.1356 54.6392 98.3981 55.1083 97.4039 55.1083C96.1944 55.1083 95.402 54.5755 94.777 53.3419C94.4269 52.6513 94.3758 50.7944 94.6826 49.9134C94.9264 49.2133 95.7291 48.232 96.2209 48.033C96.9082 47.7549 98.1666 47.8617 98.7385 48.2467ZM114.818 48.2467C115.119 48.4488 115.546 48.9368 115.767 49.3311C116.113 49.9476 116.169 50.2495 116.169 51.4936C116.169 52.7377 116.113 53.0396 115.767 53.6561C115.215 54.6392 114.478 55.1083 113.484 55.1083C112.274 55.1083 111.482 54.5755 110.857 53.3419C110.507 52.6513 110.456 50.7944 110.762 49.9134C111.006 49.2133 111.809 48.232 112.301 48.033C112.988 47.7549 114.246 47.8617 114.818 48.2467ZM122.071 48.046C122.858 48.2643 123.324 48.8742 123.324 49.6839C123.324 50.1941 123.215 50.4296 122.777 50.8671C122.266 51.3779 122.162 51.4133 121.169 51.4133H120.108V49.7382C120.108 48.278 120.144 48.0537 120.39 47.9896C120.893 47.8584 121.463 47.8775 122.071 48.046ZM145.37 48.2467C145.67 48.4488 146.097 48.9368 146.318 49.3311C146.664 49.9476 146.72 50.2495 146.72 51.4936C146.72 52.7377 146.664 53.0396 146.318 53.6561C145.767 54.6392 145.029 55.1083 144.035 55.1083C142.826 55.1083 142.033 54.5755 141.408 53.3419C141.058 52.6513 141.007 50.7944 141.314 49.9134C141.558 49.2133 142.36 48.232 142.852 48.033C143.539 47.7549 144.798 47.8617 145.37 48.2467ZM152.464 48.0467C153.547 48.3472 153.888 49.4011 153.172 50.2333C152.834 50.6254 152.655 50.6852 151.644 50.7422L150.499 50.807V49.4366C150.499 48.4907 150.561 48.0412 150.7 47.9853C151.045 47.8462 151.841 47.8738 152.464 48.0467ZM22.6649 51.4936V54.9476H20.6696H18.6741L18.9812 54.3127C19.4896 53.2614 19.7447 52.007 19.8638 49.9717L19.9769 48.0396H21.321H22.6649V51.4936ZM137.153 51.4936V54.9476H135.157H133.162L133.469 54.3127C133.977 53.2614 134.233 52.007 134.352 49.9717L134.465 48.0396H135.809H137.153V51.4936ZM160.29 49.9303C160.59 50.8785 160.869 51.7808 160.912 51.9354C160.98 52.1866 160.847 52.2165 159.664 52.2165C158.482 52.2165 158.349 52.1866 158.417 51.9354C158.708 50.8688 159.599 48.2063 159.664 48.2063C159.709 48.2063 159.99 48.9821 160.29 49.9303ZM105.728 51.2722C106.712 51.5196 107.244 52.1707 107.244 53.1249C107.244 53.7042 107.154 53.9381 106.79 54.3023C106.166 54.9254 104.827 55.281 104.122 55.0108C103.911 54.9298 103.868 54.6049 103.868 53.0963C103.868 51.7931 103.924 51.2565 104.069 51.1983C104.413 51.0595 104.984 51.0849 105.728 51.2722ZM152.44 51.7352C153.809 52.1152 154.266 53.5898 153.286 54.4647C152.758 54.9365 151.469 55.2336 150.83 55.0308C150.524 54.9338 150.499 54.8006 150.499 53.25V51.5739L151.182 51.5749C151.558 51.5754 152.124 51.6475 152.44 51.7352Z" fill="white"/>
</svg>
