<svg width="23" height="23" viewBox="0 0 23 23" fill="none" xmlns="http://www.w3.org/2000/svg">
<path fill-rule="evenodd" clip-rule="evenodd" d="M4.53255 0.0694818C2.55135 0.431657 0.920753 1.8431 0.280148 3.75016C-0.000602674 4.58595 1.10197e-08 4.56993 1.10197e-08 11.5054C1.10197e-08 18.4405 -0.000602622 18.4244 0.280039 19.2607C0.646685 20.3533 1.44046 21.4179 2.34883 22.0354C2.8521 22.3775 3.62878 22.7309 4.194 22.8751L4.68374 23H11.4765C17.8957 23 18.2934 22.9944 18.7076 22.8983C20.0249 22.5927 21.2967 21.7383 22.0174 20.6749C22.3476 20.1875 22.7074 19.4049 22.8538 18.8551L22.9773 18.3912L22.9941 11.7303C23.0086 5.93265 22.9999 5.00595 22.9266 4.58035C22.5507 2.39896 21.0002 0.720586 18.8171 0.13203C18.3809 0.0144504 18.3487 0.0138469 11.6683 0.00281867C6.08038 -0.00639895 4.88654 0.00479387 4.53255 0.0694818ZM18.4489 1.18723C20.1102 1.53058 21.4631 2.88557 21.8059 4.54957C21.9057 5.03394 21.9108 5.36977 21.9115 11.4869C21.9123 18.3588 21.9159 18.2598 21.6413 19.0462C21.2779 20.0873 20.4498 20.9995 19.424 21.4888C18.4984 21.9302 19.0689 21.8987 11.6827 21.9167C5.3358 21.9321 5.07712 21.9288 4.5738 21.8258C2.89242 21.4818 1.54317 20.1301 1.19953 18.4455C1.09643 17.9399 1.09326 17.6875 1.10975 11.298C1.12886 3.88047 1.09534 4.48949 1.53457 3.57289C2.14148 2.30645 3.37405 1.36692 4.72417 1.14163C4.88271 1.11519 7.92128 1.09099 11.4765 1.08786C17.6433 1.08243 17.964 1.08699 18.4489 1.18723ZM4.40064 6.11986C3.85042 6.31118 3.46027 6.74594 3.34052 7.30141C3.2984 7.49679 3.28514 8.82808 3.29708 11.67L3.31423 15.7576L3.46707 16.0693C3.64023 16.4225 3.90564 16.6802 4.27009 16.8491L4.5194 16.9647H11.5039H18.4885L18.7431 16.8467C19.0687 16.696 19.4254 16.3387 19.5759 16.0127C19.6931 15.7586 19.6936 15.7402 19.6936 11.5054C19.6936 7.29774 19.6924 7.25061 19.5783 7.00354C19.4097 6.63851 19.1523 6.37268 18.7997 6.19925L18.4885 6.04617L11.5861 6.03383C5.0717 6.02214 4.66786 6.02697 4.40064 6.11986ZM15.2836 9.66952C12.3163 12.6442 12.4059 12.5753 11.5042 12.5753C10.602 12.5753 10.6916 12.6442 7.72429 9.66952L5.17721 7.11607H11.5039H17.8307L15.2836 9.66952ZM6.17641 13.3022L4.38245 15.099V11.5054V7.91186L6.17641 9.70864L7.97036 11.5054L6.17641 13.3022ZM18.6254 11.519V15.099L16.8316 13.3023L15.0377 11.5056L16.8175 9.72235C17.7965 8.74156 18.6037 7.93907 18.6114 7.93907C18.6191 7.93907 18.6254 9.55007 18.6254 11.519ZM9.13253 12.6603C9.84315 13.3261 10.4808 13.6262 11.3013 13.6809C12.2275 13.7428 12.9951 13.4502 13.7336 12.7536C13.9816 12.5198 14.204 12.3284 14.2277 12.3284C14.2515 12.3284 15.0718 13.1308 16.0507 14.1116L17.8304 15.8948H11.5039H5.17743L6.95714 14.1116C7.93601 13.1308 8.74622 12.3284 8.75761 12.3284C8.76901 12.3284 8.93773 12.4778 9.13253 12.6603Z" fill="white"/>
</svg>
