<svg width="12" height="18" viewBox="0 0 12 18" fill="none" xmlns="http://www.w3.org/2000/svg">
<path fill-rule="evenodd" clip-rule="evenodd" d="M4.57557 0.129391C3.65291 0.37389 2.04929 1.33707 1.54229 1.9515C0.76152 2.89737 0.153581 4.32473 0.0347098 5.49086C-0.0564244 6.38595 0.0181058 6.89226 0.424342 8.13669C1.28398 10.7708 5.51144 18.1742 6.05448 17.9969C6.42015 17.8776 9.29172 13.169 10.4216 10.8362C12.1922 7.18062 12.4116 5.49933 11.3872 3.4385C10.707 2.0698 10.1114 1.44095 8.84247 0.751507C7.62338 0.0889935 5.75598 -0.183399 4.57557 0.129391ZM7.19658 3.30134C9.13511 4.12717 9.60777 6.71836 8.10018 8.25557C6.87619 9.50327 5.1286 9.50327 3.90461 8.25557C1.57135 5.87656 4.14594 2.0019 7.19658 3.30134ZM4.95615 5.05015C4.66407 5.34774 4.49293 5.7421 4.49293 6.11683C4.49293 6.49156 4.66407 6.88591 4.95615 7.18351C5.8707 8.1161 7.51187 7.46282 7.51187 6.16607C7.51187 5.69766 7.43885 5.62187 6.99299 5.62841C6.5492 5.63476 6.47524 5.55935 6.48147 5.1069C6.48788 4.65233 6.41354 4.57789 5.9541 4.57789C5.63767 4.57789 5.22993 4.77083 4.95615 5.05015Z" fill="white"/>
</svg>
