<svg width="26" height="26" viewBox="0 0 26 26" fill="none" xmlns="http://www.w3.org/2000/svg">
<path fill-rule="evenodd" clip-rule="evenodd" d="M1.53915 0.0398566C0.95968 0.221327 0.485699 0.619161 0.209526 1.15592C-0.010332 1.58325 -0.0505108 2.26409 0.0578755 3.72504C0.339513 7.52056 1.46889 11.1113 3.38738 14.311C5.22236 17.3714 7.75703 20.0369 10.6999 22.0009C12.6279 23.2875 15.0835 24.4344 17.2571 25.0632C19.4464 25.6964 21.8433 26.0425 23.7178 25.9958C24.4592 25.9774 24.6283 25.9533 24.8776 25.8304C25.2554 25.6443 25.669 25.232 25.8537 24.8574C25.9995 24.5614 26 24.5517 26 21.5724V18.5843L25.8262 18.2551C25.4629 17.5666 24.7349 17.139 23.9243 17.1379C22.7063 17.1364 21.0726 16.8952 19.7999 16.529C18.9006 16.2703 18.4137 16.2419 17.9489 16.4211C17.7713 16.4896 16.9473 17.0681 15.9863 17.7988L14.3298 19.0584L13.8648 18.7956C11.4105 17.4082 9.65617 15.8369 8.21192 13.7327C7.81135 13.1492 7.11269 11.9967 7.03195 11.7864C7.00681 11.7209 7.3978 11.1546 8.1718 10.1355C9.48266 8.40953 9.69442 8.06252 9.74681 7.55513C9.78288 7.20613 9.77285 7.15498 9.41561 5.8649C9.16502 4.95999 8.99434 3.80414 8.93829 2.63249C8.89663 1.76003 8.86127 1.49502 8.75436 1.25347C8.56896 0.834496 8.14641 0.400677 7.71974 0.191189L7.35704 0.0131887L4.52846 0.00136485C2.97273 -0.00512541 1.62755 0.0121605 1.53915 0.0398566Z" fill="white"/>
</svg>
