<svg width="16" height="17" viewBox="0 0 16 17" fill="none" xmlns="http://www.w3.org/2000/svg">
<path fill-rule="evenodd" clip-rule="evenodd" d="M0.947172 0.0260601C0.590572 0.144714 0.298892 0.404836 0.128939 0.755797C-0.00635817 1.0352 -0.0310836 1.48037 0.0356157 2.4356C0.208931 4.91729 0.903932 7.26511 2.08454 9.35722C3.21376 11.3582 4.77356 13.101 6.58456 14.3852C7.77099 15.2265 9.28213 15.9763 10.6198 16.3874C11.967 16.8015 13.442 17.0278 14.5956 16.9973C15.0518 16.9852 15.1559 16.9695 15.3093 16.8891C15.5418 16.7674 15.7963 16.4979 15.91 16.2529C15.9997 16.0594 16 16.053 16 14.105V12.1513L15.8931 11.936C15.6695 11.4858 15.2215 11.2063 14.7227 11.2055C13.9731 11.2045 12.9678 11.0469 12.1845 10.8074C11.6311 10.6382 11.3315 10.6197 11.0455 10.7369C10.9362 10.7816 10.4291 11.1599 9.83771 11.6377L8.81836 12.4613L8.53221 12.2894C7.02187 11.3823 5.94226 10.3549 5.05349 8.97907C4.80699 8.59752 4.37704 7.84396 4.32735 7.70649C4.31188 7.66367 4.55249 7.29338 5.0288 6.62705C5.83548 5.49854 5.9658 5.27165 5.99804 4.93989C6.02023 4.7117 6.01406 4.67826 5.79422 3.83474C5.64001 3.24307 5.53498 2.48732 5.50048 1.72124C5.47485 1.15079 5.45309 0.977516 5.3873 0.819577C5.27321 0.545632 5.01318 0.261981 4.75061 0.125008L4.52741 0.00862338L2.78674 0.000892404C1.82937 -0.00335123 1.00157 0.00795112 0.947172 0.0260601Z" fill="white"/>
</svg>
