<svg width="124" height="25" viewBox="0 0 124 25" fill="none" xmlns="http://www.w3.org/2000/svg">
<path d="M12.5 0L15.292 8.65717L24.3882 8.63729L17.0175 13.9678L19.8473 22.6127L12.5 17.25L5.15268 22.6127L7.98248 13.9678L0.611794 8.63729L9.70802 8.65717L12.5 0Z" fill="#FCFF56"/>
<path d="M37 0L39.6803 8.65717L48.4127 8.63729L41.3368 13.9678L44.0534 22.6127L37 17.25L29.9466 22.6127L32.6632 13.9678L25.5873 8.63729L34.3197 8.65717L37 0Z" fill="#FCFF56"/>
<path d="M61.5 0L64.292 8.65717L73.3882 8.63729L66.0175 13.9678L68.8473 22.6127L61.5 17.25L54.1527 22.6127L56.9825 13.9678L49.6118 8.63729L58.708 8.65717L61.5 0Z" fill="#FCFF56"/>
<path d="M111.5 0L114.292 8.65717L123.388 8.63729L116.018 13.9678L118.847 22.6127L111.5 17.25L104.153 22.6127L106.982 13.9678L99.6118 8.63729L108.708 8.65717L111.5 0Z" fill="#FCFF56"/>
<path d="M86.5 0L89.292 8.65717L98.3882 8.63729L91.0175 13.9678L93.8473 22.6127L86.5 17.25L79.1527 22.6127L81.9825 13.9678L74.6118 8.63729L83.708 8.65717L86.5 0Z" fill="#FCFF56"/>
</svg>
